<?xml version="1.0" encoding="UTF-8" standalone="no"?>
<!-- Created with Inkscape (http://www.inkscape.org/) -->

<svg
   xmlns:dc="http://purl.org/dc/elements/1.1/"
   xmlns:cc="http://creativecommons.org/ns#"
   xmlns:rdf="http://www.w3.org/1999/02/22-rdf-syntax-ns#"
   xmlns:svg="http://www.w3.org/2000/svg"
   xmlns="http://www.w3.org/2000/svg"
   xmlns:sodipodi="http://sodipodi.sourceforge.net/DTD/sodipodi-0.dtd"
   xmlns:inkscape="http://www.inkscape.org/namespaces/inkscape"
   version="1.1"
   id="svg815"
   viewBox="0 0 980 814.66669"
   sodipodi:docname="guy.svg"
   inkscape:version="0.92.3 (2405546, 2018-03-11)">
  <metadata
     id="metadata821">
    <rdf:RDF>
      <cc:Work
         rdf:about="">
        <dc:format>image/svg+xml</dc:format>
        <dc:type
           rdf:resource="http://purl.org/dc/dcmitype/StillImage" />
        <dc:title></dc:title>
      </cc:Work>
    </rdf:RDF>
  </metadata>
  <defs
     id="defs819" />
  <sodipodi:namedview
     pagecolor="#ffffff"
     bordercolor="#666666"
     borderopacity="1"
     objecttolerance="10"
     gridtolerance="10"
     guidetolerance="10"
     inkscape:pageopacity="0"
     inkscape:pageshadow="2"
     inkscape:window-width="1920"
     inkscape:window-height="1017"
     id="namedview817"
     showgrid="false"
     inkscape:zoom="2.84"
     inkscape:cx="782.59712"
     inkscape:cy="678.51591"
     inkscape:window-x="-8"
     inkscape:window-y="1072"
     inkscape:window-maximized="1"
     inkscape:current-layer="g843" />
  <g
     id="g843"
     transform="translate(0.43754997,-0.13297101)">
    <path
       style="fill:#e4ebfa;stroke-width:1.33333337"
       d="m 489.06995,812.58801 c -31.61246,-3.28928 -65.83868,-10.576 -92.56911,-19.70783 -84.39379,-28.83118 -157.85276,-84.7222 -206.77799,-157.32639 0,0 -6.16513,-8.56912 -8.83629,-13.11288 -11.38806,-19.37163 -21.48696,-39.53274 -30.52696,-60.1052 -1.5513,-3.53032 -4.05471,-10.83452 -4.05471,-10.83452 C 112.17289,460.29767 111.62541,353.6502 144.84107,266.35058 214.43779,83.43183 396.92544,-23.863658 589.76233,4.7545603 671.40693,16.871138 745.212,52.256039 807.55192,109.17101 c 8.92023,8.14397 16.42023,15.35717 16.66667,16.02935 0.24644,0.67217 3.69273,4.64124 7.65842,8.82015 6.56954,6.92275 8.1693,7.866 18,10.61313 10.62368,2.96872 26.2274,6.31408 40.96422,8.78254 6.40452,1.07277 18.60644,5.4097 35.15877,12.49649 2.2,0.94192 5.61961,2.3702 7.59915,3.17395 1.97953,0.80374 6.17953,3.12268 9.33333,5.1532 3.1538,2.03051 6.93419,4.36436 8.40085,5.18633 1.46667,0.82198 4.76667,2.77062 7.33334,4.33031 2.56666,1.55969 6.46666,3.84148 8.66666,5.07063 2.2,1.22914 6.02087,3.77116 8.49082,5.6489 4.48324,3.40834 4.48978,3.42995 3.88638,12.83228 -1.14865,17.89855 -10.149,26.07874 -37.99297,34.53084 -16.69353,5.06738 -30.82617,8.82756 -33.17829,8.82756 -2.53048,0 -2.87378,-1.37858 5.47838,22 36.79182,102.98418 29.92352,214.68982 -19.43328,316.06189 -18.60544,38.21298 -39.91961,68.09487 -72.7105,101.93813 -11.00335,11.35648 -15.11932,16.54368 -15.86971,20 -1.12447,5.17933 -6.48664,16.22885 -10.31935,21.26446 -3.41697,4.48939 -12.21049,9.25867 -18.83562,10.21575 -13.70927,1.98045 -21.71274,5.02692 -36.32662,13.82745 -44.66173,26.8955 -96.07536,45.59947 -146.52257,53.30406 -35.81217,5.46943 -72.92301,6.63995 -104.93005,3.3096 z M 880.58707,190.79985 c 2.25429,-0.88248 1.83209,-1.46296 -3.28235,-4.51284 -3.22817,-1.92506 -6.06108,-3.30842 -6.29536,-3.07414 -0.82861,0.8286 4.34368,8.76902 5.65731,8.68499 0.73333,-0.0469 2.4975,-0.54101 3.9204,-1.09801 z"
       id="path857"
       inkscape:connector-curvature="0"
       sodipodi:nodetypes="sssaasssscssssccccccscsssssscsssccccc" />
    <path
       style="fill:#eae9f2;stroke-width:1.33333337"
       d="m 489.06995,812.58801 c -31.61246,-3.28928 -65.83868,-10.576 -92.56911,-19.70783 -84.39379,-28.83118 -157.85276,-84.7222 -206.77799,-157.32639 0,0 -6.16513,-8.56912 -8.83629,-13.11288 -11.38806,-19.37163 -21.48696,-39.53274 -30.52696,-60.1052 -1.5513,-3.53032 -4.05471,-10.83452 -4.05471,-10.83452 -6.27569,-16.76916 -13.82057,-43.08974 -17.52196,-61.1259 -6.52995,-31.81929 -7.99212,-47.26288 -7.98848,-84.37528 0.004,-44.55215 2.85048,-66.74795 13.90024,-108.40321 3.44779,-12.99743 4.76628,-16.24395 6.3502,-15.63615 1.53395,0.58864 1.65791,0.35613 0.53283,-0.9995 -1.61499,-1.94596 -0.65308,-7.62781 1.29137,-7.62781 0.68939,0 0.61984,1.13025 -0.15912,2.58575 -0.92026,1.71953 -0.93598,2.86254 -0.0469,3.41202 0.73533,0.45446 1.33696,0.15546 1.33696,-0.66444 0,-0.81989 0.60979,-1.11384 1.35508,-0.65322 0.74529,0.46061 0.97143,1.45826 0.50251,2.21698 -0.46892,0.75874 0.72129,0.34827 2.64492,-0.91213 C 151.665,277.24615 152,277.2329 152,279.17999 c 0,1.18435 0.63541,2.15335 1.41203,2.15335 0.77661,0 1.13958,-0.45 0.80661,-1 -0.33297,-0.55 0.23161,-1.77365 1.25464,-2.71924 1.5302,-1.41435 1.86005,-1.35524 1.86005,0.33333 0,1.373 1.21398,2.02155 3.66667,1.95886 3.24912,-0.0831 3.363,-0.2242 1,-1.23962 -1.58668,-0.68181 -1.89919,-1.18385 -0.77165,-1.23961 1.04225,-0.0516 3.09538,0.95628 4.56252,2.23961 1.46713,1.28334 2.22897,1.58334 1.69297,0.66667 -1.20029,-2.05273 0.78068,-2.20215 2.77363,-0.2092 1.0544,1.0544 2.42501,0.82351 4.95604,-0.83489 2.77425,-1.81776 3.34397,-1.88947 2.75182,-0.34636 -0.4499,1.17245 0.0477,1.94601 1.25198,1.94601 1.09929,0 1.6897,-0.5 1.31201,-1.11112 -0.37768,-0.61111 0.24871,-1.11111 1.39199,-1.11111 1.14328,0 2.07869,0.47143 2.07869,1.04762 0,0.5762 1.2,1.04762 2.66667,1.04762 2.97457,0 3.56757,-1.50949 1,-2.54553 -1.04723,-0.42256 -1.10791,-0.71164 -0.16326,-0.77777 0.82687,-0.0579 2.25034,0.79473 3.16326,1.89473 0.91292,1.1 2.33638,1.99081 3.16325,1.97959 1.01163,-0.0137 0.9706,-0.35895 -0.12547,-1.05531 -1.08682,-0.69052 -0.22977,-1.56296 2.57564,-2.62189 3.21344,-1.21294 3.83308,-1.21562 2.62883,-0.012 -2.70329,2.70329 -1.72328,3.9636 1.38771,1.78457 3.86621,-2.708 5.15934,-2.62628 4.07849,0.25773 -0.73,1.94788 -0.54075,2.06251 1.14564,0.69391 1.39904,-1.13539 3.2896,-1.27533 6.14928,-0.45519 2.27105,0.65132 4.45984,0.85356 4.86399,0.44943 0.40414,-0.40415 1.7993,0.10067 3.10036,1.12185 2.11254,1.65808 2.18429,1.62452 0.67078,-0.31381 -1.43078,-1.8324 -1.27522,-2.28019 0.99868,-2.87483 1.48139,-0.38738 3.08675,-0.068 3.56744,0.70983 0.55072,0.89108 0.22842,1.01517 -0.87134,0.33548 -1.14884,-0.71003 -1.42334,-0.55764 -0.80315,0.44584 0.67881,1.09835 1.8546,0.92669 4.20601,-0.61401 3.03902,-1.99123 3.2638,-1.97598 3.2638,0.22148 0,2.24 0.13559,2.23729 2.66667,-0.0533 1.51225,-1.36857 2.66667,-1.74664 2.66667,-0.87332 0,0.847 1.65,1.5308 3.66666,1.51958 2.85726,-0.0159 3.22516,-0.30575 1.66667,-1.31292 -1.1,-0.71088 -1.44724,-1.3017 -0.77165,-1.31292 0.67558,-0.0107 2.42872,1.02958 3.89585,2.31292 1.46713,1.28333 2.22897,1.58333 1.69297,0.66666 -1.20029,-2.05273 0.78068,-2.20214 2.77363,-0.2092 1.0544,1.0544 2.51091,0.7842 5.26667,-0.97698 3.44002,-2.19851 3.63185,-2.21054 1.97928,-0.12414 -1.61956,2.04474 -1.49556,2.31032 1.07868,2.31032 1.59974,0 2.63618,-0.45 2.30321,-1 -0.33297,-0.55 0.23161,-1.77365 1.25464,-2.71924 1.54443,-1.4275 1.86005,-1.26492 1.86005,0.95816 0,1.82754 0.6324,2.43471 1.99235,1.91286 1.09579,-0.4205 1.66037,-1.30167 1.25464,-1.95815 -0.40573,-0.65649 0.19771,-1.19363 1.34099,-1.19363 1.14328,0 2.07869,0.54383 2.07869,1.20851 0,1.42325 5.13129,0.35201 8,-1.67011 1.65183,-1.16436 1.70985,-1.08441 0.33333,0.45924 -2.81152,3.15288 -1.85169,4.4303 1.61976,2.15571 3.99567,-2.61807 4.839,-2.69829 3.94768,-0.37557 -0.38152,0.99425 0.19872,1.77778 1.31654,1.77778 1.09929,0 1.6897,-0.5 1.31201,-1.11112 -1.32885,-2.15014 2.53323,-1.08281 4.42256,1.22223 1.05189,1.28333 1.55508,1.61964 1.11817,0.74736 -0.99442,-1.98541 4.43315,-1.86944 7.26328,0.1552 1.66888,1.19389 1.73407,1.08908 0.39375,-0.63305 -1.34852,-1.73267 -0.92064,-2.31456 2.66667,-3.62652 3.59725,-1.31562 3.90722,-1.28467 1.9603,0.19565 -3.2537,2.47392 -1.27678,3.82525 2.11778,1.44761 3.6936,-2.58709 4.95818,-2.4655 3.95676,0.38042 -0.65316,1.85618 -0.46852,2.00729 0.90294,0.73889 1.01303,-0.93688 3.37898,-1.26345 5.7369,-0.79188 2.85077,0.57016 3.73698,0.35619 3.0602,-0.73888 -0.52398,-0.84781 -0.31727,-1.54147 0.45934,-1.54147 0.77662,0 1.41203,0.45567 1.41203,1.0126 0,0.55694 1.35,1.85334 3,2.88088 2.746,1.71008 2.84507,1.6808 1.17008,-0.34593 -1.57479,-1.90549 -1.52832,-2.21421 0.33333,-2.21421 3.07535,0 4.21559,0.50965 3.81682,1.70598 -0.19055,0.57164 1.15945,0.0527 3,-1.15334 3.06429,-2.0078 3.34644,-2.01112 3.34644,-0.0393 0,1.18435 0.63541,2.15335 1.41202,2.15335 0.77662,0 1.15334,-0.45 0.83718,-1 -0.31618,-0.55 0.50877,-2.11323 1.83322,-3.47384 2.34168,-2.40564 2.38784,-2.39644 1.67399,0.33333 -0.62369,2.38498 -0.15925,2.79308 3.08808,2.71346 3.3386,-0.0819 3.48479,-0.23868 1.15551,-1.23962 -1.58668,-0.68181 -1.89919,-1.18385 -0.77166,-1.23961 1.04226,-0.0516 3.09539,0.95628 4.56252,2.23961 1.46714,1.28334 2.22898,1.58334 1.69298,0.66667 -1.2003,-2.05273 0.78068,-2.20215 2.77362,-0.2092 1.0544,1.0544 2.51091,0.7842 5.26667,-0.97699 3.27687,-2.09422 3.5622,-2.12209 2.04175,-0.1994 -1.53482,1.94086 -1.41535,2.20852 0.90762,2.03354 1.4713,-0.1108 2.38124,-0.67696 2.0221,-1.25807 -0.35914,-0.58109 0.28242,-1.05655 1.4257,-1.05655 1.14328,0 2.0787,0.47143 2.0787,1.04762 0,0.5762 1.2,1.04762 2.66666,1.04762 2.97458,0 3.56758,-1.50949 1,-2.54553 -1.05246,-0.42468 -0.85936,-0.71131 0.52402,-0.77777 1.20488,-0.0579 2.53604,0.79473 2.95816,1.89473 0.4221,1.1 1.53629,1.99081 2.47598,1.97959 1.32114,-0.0157 1.3392,-0.25507 0.0797,-1.05531 -1.08683,-0.69052 -0.22978,-1.56296 2.57564,-2.62189 3.21344,-1.21294 3.83308,-1.21562 2.62882,-0.012 -2.81653,2.81653 -1.66261,4.07265 1.71079,1.86232 4.18051,-2.73918 4.83763,-2.70768 3.75541,0.17998 -0.73,1.94788 -0.54074,2.06251 1.14564,0.69391 1.39904,-1.13539 3.2896,-1.27533 6.14928,-0.45519 2.27106,0.65132 4.45984,0.85356 4.86399,0.44943 0.40415,-0.40415 1.79931,0.10067 3.10036,1.12185 2.11255,1.65808 2.18429,1.62452 0.67079,-0.31381 -1.43079,-1.8324 -1.27523,-2.28019 0.99868,-2.87483 1.48138,-0.38738 3.08674,-0.068 3.56744,0.70983 0.55072,0.89108 0.22841,1.01517 -0.87135,0.33548 -1.14884,-0.71003 -1.42333,-0.55764 -0.80315,0.44584 0.67882,1.09835 1.8546,0.92669 4.20602,-0.61401 3.03901,-1.99123 3.2638,-1.97598 3.2638,0.22148 0,2.24 0.13558,2.23729 2.66666,-0.0533 1.51226,-1.36857 2.66667,-1.74664 2.66667,-0.87332 0,0.847 1.65,1.5308 3.66667,1.51958 2.85725,-0.0159 3.22516,-0.30575 1.66666,-1.31292 -1.1,-0.71088 -1.43866,-1.3017 -0.7526,-1.31292 0.68607,-0.0107 2.76791,1.32958 4.62632,2.97958 1.8584,1.65 2.57362,1.95 1.58934,0.66667 -1.94719,-2.53884 -0.23858,-3.24219 2.12774,-0.87587 1.0544,1.0544 2.51091,0.7842 5.26667,-0.97698 3.44003,-2.19851 3.63185,-2.21054 1.97928,-0.12414 -1.61956,2.04474 -1.49556,2.31032 1.07868,2.31032 1.59975,0 2.63619,-0.45 2.30321,-1 -0.33297,-0.55 0.23162,-1.77365 1.25464,-2.71924 1.54443,-1.4275 1.86006,-1.26492 1.86006,0.95816 0,1.82754 0.6324,2.43471 1.99234,1.91286 1.09579,-0.4205 1.66038,-1.30167 1.25464,-1.95815 -0.40573,-0.65515 0.23312,-1.19228 1.41968,-1.19228 1.18656,0 1.82872,0.53179 1.42702,1.18175 -0.4017,0.64996 0.46372,1.494 1.92316,1.87565 1.45942,0.38165 2.40389,0.29003 2.09881,-0.2036 -0.30508,-0.49363 1.01444,-1.63801 2.93225,-2.54308 2.61874,-1.23584 3.08838,-1.247 1.88619,-0.0448 -2.83707,2.83707 -1.70249,4.10745 1.68567,1.88744 3.99566,-2.61807 4.839,-2.69829 3.94768,-0.37557 -0.38152,0.99425 0.19872,1.77778 1.31653,1.77778 1.09929,0 1.68971,-0.5 1.31201,-1.11112 -1.32885,-2.15014 2.53323,-1.08281 4.42256,1.22223 1.0519,1.28333 1.46962,1.48137 0.92827,0.44008 -0.72009,-1.38511 -0.38876,-1.66473 1.23447,-1.04184 2.54998,0.97852 3.07292,-1.13784 0.55205,-2.23421 -0.91667,-0.39868 -0.0167,-0.38364 2,0.0335 2.54317,0.52595 3.66667,0.21456 3.66667,-1.01625 0,-0.976 0.93881,-0.43421 2.08625,1.20399 1.92124,2.74297 2.31379,2.81916 4.96333,0.96334 3.31978,-2.32525 5.4985,-2.64736 4.25072,-0.62842 -0.92737,1.50053 4.14326,0.59292 10.03303,-1.79583 1.83333,-0.74356 4.08333,-1.22941 5,-1.07965 0.91667,0.14974 1.66667,-0.38944 1.66667,-1.1982 0,-0.80876 0.6,-1.09966 1.33333,-0.64643 0.73333,0.45323 1.33333,0.15323 1.33333,-0.66667 0,-0.81989 0.6,-1.11989 1.33334,-0.66666 0.73333,0.45322 2.08333,0.35449 3,-0.2194 0.91666,-0.5739 2.26666,-1.0936 3,-1.1549 3.24722,-0.27141 14.66373,-5.64056 22.66666,-10.66005 2.93334,-1.8398 6.53334,-3.96049 8,-4.71263 1.46667,-0.75214 3.86667,-2.09774 5.33334,-2.99022 14.17556,-8.626 21.64664,-12.56199 32.56388,-17.15562 7.88797,-3.31901 14.0437,-6.85157 16.10278,-9.24082 2.55674,-2.96672 5.19716,-4.2044 11.33334,-5.31246 4.4,-0.79452 9.2,-2.47968 10.66666,-3.7448 5.46443,-4.71345 18,-7.59834 18,-4.14244 0,0.73334 1.54043,1.33334 3.42319,1.33334 2.92385,0 3.29381,-0.4376 2.53631,-3 -3.6172,-12.23579 -5.25906,-17.00823 -7.45399,-21.66667 -1.81071,-3.84299 -2.51188,-8.32067 -2.50921,-16.02383 0.003,-9.28235 -0.44684,-11.35352 -3.41683,-15.72425 -1.88129,-2.76858 -3.42083,-6.05786 -3.42116,-7.30951 -10e-4,-5.21167 2.71465,-25.26239 3.96328,-29.25777 1.63776,-5.24053 0.53235,-6.15956 -4.35741,-3.62273 -3.41598,1.77223 -3.63506,1.74028 -2.75314,-0.40157 2.46986,-5.99831 2.34971,-6.99234 -0.85553,-7.07819 l -3.15551,-0.0845 3.14952,-1.26117 c 3.2168,-1.2881 3.30935,-2.28613 1.06939,-11.530851 -0.57564,-2.375749 0.94237,-4.418302 7.67969,-10.333333 4.61843,-4.054806 9.41182,-7.372334 10.65196,-7.372334 1.3066,0 2.84122,-1.682121 3.64923,-4 0.86917,-2.493297 2.32011,-4 3.85196,-4 1.35164,0 2.85364,-0.640904 3.33776,-1.424232 0.48413,-0.783327 1.70032,-1.109531 2.70267,-0.724899 1.00233,0.384634 2.17705,0.125534 2.61048,-0.575768 1.04844,-1.696404 17.2485,-1.572822 23.96401,0.182808 2.93333,0.76686 6.83333,1.706307 8.66667,2.087659 1.83333,0.381352 6.49973,2.139607 10.36978,3.907233 3.87004,1.767626 8.15104,3.213866 9.51332,3.213866 1.36228,0 3.45347,1.490473 4.64708,3.312164 1.19362,1.821689 3.81263,3.721003 5.82002,4.220695 7.15133,1.780153 12.45678,7.409637 18.03246,19.133812 5.00008,10.5138 5.37631,12.10465 5.20291,22 -0.1028,5.86666 -0.83393,13.66666 -1.62475,17.33333 -0.79082,3.66667 -1.98924,9.66667 -2.66314,13.33333 -0.67391,3.66667 -1.82503,7.86667 -2.55804,9.33334 -3.48714,6.97728 -6.73964,17.19671 -6.73964,21.17604 0,4.94231 2.33534,7.48899 9.33333,10.17792 2.56667,0.98623 6.2126,3.58916 8.10208,5.78431 2.66253,3.09325 4.0124,3.7374 6,2.86312 1.41052,-0.62043 3.92493,-1.2894 5.58759,-1.4866 1.66264,-0.1972 5.22406,-2.17287 7.91425,-4.39035 4.52639,-3.73103 5.45092,-3.97331 12.3932,-3.24769 5.51969,0.57692 8.59903,0.21678 11.65395,-1.36298 2.65882,-1.37493 7.42408,-2.1328 13.25046,-2.10737 5.00416,0.0219 13.89847,0.0609 19.76514,0.0869 17.14721,0.0759 26.55648,-0.51453 28.2058,-1.76994 0.84652,-0.64435 3.24652,-0.72398 5.33333,-0.17694 4.48765,1.17639 7.17423,0.86582 12.7346,-1.47216 l 4.11883,-1.73182 -6.52962,-3.73016 C 872.93832,183.89405 869.1,181.48303 868,180.58783 c -1.1,-0.89521 -5.3,-2.94796 -9.33333,-4.56168 -4.03334,-1.61371 -10.03334,-4.03993 -13.33334,-5.3916 -8.23001,-3.37099 -12.12265,-4.08869 -25.30085,-4.66493 -6.25587,-0.27354 -13.60312,-1.4286 -16.32723,-2.56682 -5.98296,-2.49984 -6.37024,-2.52429 -6.37809,-0.4028 -0.004,0.91667 -1.8338,3.61667 -4.06757,6 -3.48362,3.71686 -4.96718,4.33334 -10.42808,4.33334 -4.94626,0 -6.94444,-0.66931 -8.9564,-3 -7.49234,-8.67931 -13.87512,-20.61535 -13.87507,-25.94688 4e-5,-3.92271 2.82872,-6.70163 16.99145,-16.69257 l 7.04922,-4.97279 5.6463,2.58115 c 3.10548,1.41963 10.14632,4.64206 15.64632,7.16096 5.5,2.51889 16.27527,5.87826 23.94504,7.46526 7.66976,1.587 18.16976,4.02223 23.33334,5.41161 8.74197,2.35227 29.56437,6.72548 41.02185,8.61562 4.24893,0.70094 17.57208,5.62285 32.36644,11.95697 2.2,0.94192 5.61961,2.3702 7.59915,3.17395 1.97953,0.80374 6.17953,3.12268 9.33333,5.1532 3.1538,2.03051 6.93419,4.36436 8.40085,5.18633 1.46667,0.82198 4.76667,2.77062 7.33334,4.33031 2.56666,1.55969 6.46666,3.84148 8.66666,5.07063 2.2,1.22914 6.02087,3.77116 8.49082,5.6489 4.48324,3.40834 4.48978,3.42995 3.88638,12.83228 -0.47017,7.32622 -1.39852,10.61816 -4.17949,14.82051 -8.26155,12.48403 -17.45648,16.25893 -74.86437,30.73496 -7.33334,1.84917 -15.20416,4.51132 -17.49071,5.91587 -2.39391,1.47049 -6.57745,2.55373 -9.86268,2.55373 -4.57735,0 -6.91867,0.97213 -11.84263,4.91715 -3.37552,2.70444 -7.21069,6.00444 -8.5226,7.33333 -1.31189,1.32891 -3.1977,2.41619 -4.19068,2.41619 -1.88236,0 -4.00397,3.86452 -2.78876,5.07972 0.38394,0.38393 0.69806,-0.122 0.69806,-1.12416 0,-1.4173 0.35556,-1.46667 1.6,-0.22223 0.88,0.88 2.23,1.59081 3,1.57959 0.78845,-0.012 0.68849,-0.47248 -0.22883,-1.05531 -1.08683,-0.69052 -0.22977,-1.56296 2.57564,-2.62189 3.21344,-1.21294 3.83308,-1.21562 2.62883,-0.012 -2.7033,2.70329 -1.72328,3.9636 1.3877,1.78457 3.86622,-2.708 5.15935,-2.62628 4.0785,0.25773 -0.73,1.94788 -0.54075,2.06251 1.14564,0.69391 1.39904,-1.13539 3.2896,-1.27533 6.14928,-0.45519 2.27105,0.65132 4.45984,0.85356 4.86398,0.44943 0.40415,-0.40415 1.79931,0.10067 3.10036,1.12185 2.11255,1.65808 2.1843,1.62452 0.67079,-0.31381 -1.43079,-1.8324 -1.27523,-2.28019 0.99868,-2.87483 1.48139,-0.38738 3.08675,-0.068 3.56744,0.70983 0.55072,0.89108 0.22841,1.01517 -0.87135,0.33548 -1.14884,-0.71003 -1.42333,-0.55764 -0.80314,0.44584 0.67881,1.09835 1.8546,0.92669 4.20601,-0.61401 3.03901,-1.99123 3.2638,-1.97598 3.2638,0.22148 0,2.24 0.13559,2.23729 2.66667,-0.0533 1.51225,-1.36857 2.66666,-1.74664 2.66666,-0.87332 0,0.847 1.65,1.5308 3.66667,1.51958 2.85725,-0.0159 3.22516,-0.30575 1.66667,-1.31292 -1.1,-0.71088 -1.44724,-1.3017 -0.77166,-1.31292 0.67559,-0.0107 2.42872,1.02958 3.89586,2.31292 1.46713,1.28333 2.22897,1.58333 1.69297,0.66666 -1.20029,-2.05273 0.78068,-2.20214 2.77363,-0.2092 1.0544,1.0544 2.5109,0.7842 5.26666,-0.97698 3.73063,-2.38424 3.76795,-2.38203 1.8092,0.10706 -1.84997,2.3509 -1.78446,2.48603 0.87338,1.80159 2.63853,-0.67947 3.21188,0.41864 7.01496,13.43544 19.49448,66.72364 21.18888,139.53523 4.83166,207.62635 -12.29056,51.16269 -36.61768,104.17903 -66.14865,144.15852 -12.83987,17.3828 -20.30173,26.09249 -38.03081,44.39054 -11.00335,11.35648 -15.11932,16.54368 -15.86971,20 -1.12447,5.17934 -6.48664,16.22886 -10.31935,21.26447 -3.41697,4.48939 -12.21049,9.25867 -18.83562,10.21575 -13.70927,1.98045 -21.71274,5.02692 -36.32662,13.82745 -44.66173,26.8955 -96.07536,45.59947 -146.52257,53.30406 -35.81217,5.46942 -72.92301,6.63994 -104.93005,3.3096 z M 214,278.66667 c -0.45323,-0.73333 -0.18864,-1.33333 0.58797,-1.33333 0.77662,0 1.41203,0.6 1.41203,1.33333 0,0.73334 -0.26459,1.33334 -0.58797,1.33334 -0.32339,0 -0.9588,-0.6 -1.41203,-1.33334 z m 184,0 c -0.45323,-0.73333 -0.18864,-1.33333 0.58797,-1.33333 0.77662,0 1.41203,0.6 1.41203,1.33333 0,0.73334 -0.26459,1.33334 -0.58797,1.33334 -0.32339,0 -0.9588,-0.6 -1.41203,-1.33334 z m 35.33333,-0.0787 c 0,-0.77662 0.6,-1.0412 1.33334,-0.58798 0.73333,0.45323 1.33333,1.08864 1.33333,1.41203 0,0.32339 -0.6,0.58797 -1.33333,0.58797 -0.73334,0 -1.33334,-0.63541 -1.33334,-1.41202 z m 438,0.0787 c -0.45322,-0.73333 -0.18864,-1.33333 0.58798,-1.33333 0.77661,0 1.41202,0.6 1.41202,1.33333 0,0.73334 -0.26458,1.33334 -0.58797,1.33334 -0.32339,0 -0.9588,-0.6 -1.41203,-1.33334 z m -386,-0.52401 c 0,-0.28821 0.93116,-0.88133 2.06926,-1.31807 1.18656,-0.45532 1.72176,-0.2318 1.25464,0.52402 -0.78302,1.26694 -3.3239,1.87393 -3.3239,0.79405 z M 164,274.58798 c 0,-0.77661 0.6,-1.0412 1.33333,-0.58797 0.73334,0.45322 1.33334,1.08864 1.33334,1.41202 0,0.32339 -0.6,0.58798 -1.33334,0.58798 C 164.6,276.00001 164,275.36459 164,274.58798 Z m 289.33333,0 c 0,-0.77661 0.6,-1.0412 1.33334,-0.58797 0.73333,0.45322 1.33333,1.08864 1.33333,1.41202 0,0.32339 -0.6,0.58798 -1.33333,0.58798 -0.73334,0 -1.33334,-0.63542 -1.33334,-1.41203 z m -66.66666,-2.58797 c 0,-0.73334 0.63541,-1.33334 1.41202,-1.33334 0.77662,0 1.0412,0.6 0.58798,1.33334 -0.45323,0.73333 -1.08864,1.33333 -1.41203,1.33333 -0.32339,0 -0.58797,-0.6 -0.58797,-1.33333 z m -73.33334,-1.33334 c 0,-0.73333 0.63542,-1.33333 1.41203,-1.33333 0.77661,0 1.0412,0.6 0.58797,1.33333 -0.45322,0.73334 -1.08864,1.33334 -1.41202,1.33334 -0.32339,0 -0.58798,-0.6 -0.58798,-1.33334 z"
       id="path855"
       inkscape:connector-curvature="0"
       sodipodi:nodetypes="cssaasscsccsccscccssscscccccsccscsssccsccccccccccccccccscsccccccccsscsccsscsscsscccccscccccsscssccssccccccscccsccssscccccscccccccccccccscscccccsccsccsccsscsccccsccccccscccccsssccccccscccsscscccssccccccscsccsscsscscssccsccccscscccccccccscccsscsscccscccccccccscccsccscsscccccccccccccccsscscccsccccssssssscsscccsssccssscscssscssscsccsscsssscssssscsssscss" />
    <path
       style="fill:#eee7ed;stroke-width:1.33333337"
       d="M 489.06995,812.58801 C 364.68224,799.64542 257.80657,736.10118 189.05403,634.20982 l -7.9556,-11.79019 c -10.137,-15.02302 -12.89544,-15.3188 -34.23499,-70.79328 -4.58031,-11.90701 -5.92752,-16.93089 -4.55551,-17.04479 0.56398,-0.0468 3.00823,-0.27962 5.43167,-0.51737 2.42345,-0.23775 4.10203,-0.128 3.73016,0.24384 -0.37185,0.37187 0.18116,1.53337 1.22892,2.58115 1.46444,1.46444 2.53768,1.56644 4.64052,0.44104 1.50452,-0.8052 2.47073,-1.89238 2.14715,-2.41595 -0.32359,-0.52359 1.15961,-1.0234 3.29598,-1.11071 2.73132,-0.1116 3.91558,0.48766 3.9896,2.01886 0.0668,1.38236 0.35086,1.56894 0.77778,0.51093 0.36988,-0.91667 1.55792,-1.66667 2.64009,-1.66667 1.08217,0 1.59676,0.6 1.14353,1.33334 -1.57694,2.55154 1.04714,1.3122 4.02506,-1.90104 2.75258,-2.97008 3.22993,-3.07158 5.84186,-1.2421 1.5644,1.09574 2.47154,2.59551 2.01587,3.3328 -0.45568,0.7373 0.45259,0.54624 2.01837,-0.42457 2.40806,-1.49303 3.04298,-1.45681 4.11911,0.23491 1.08529,1.70612 1.27523,1.65714 1.29265,-0.33334 0.0107,-1.28333 0.60159,-2.33333 1.31191,-2.33333 0.71031,0 0.922,1.05 0.47043,2.33333 -0.67026,1.90475 -0.49114,2.0272 0.97517,0.66667 2.13695,-1.9828 5.77777,-2.24511 4.59481,-0.33104 -0.454,0.7346 1.29084,0.0869 3.87744,-1.43913 2.79415,-1.64859 5.39715,-2.34163 6.41344,-1.70755 0.9408,0.58699 2.88451,1.24975 4.31934,1.47281 1.43484,0.22307 3.07564,1.14043 3.64625,2.03858 0.73171,1.15173 1.04348,0.97214 1.05788,-0.60938 0.0151,-1.66014 0.97247,-2.12852 3.68708,-1.80385 2.22939,0.26663 3.49733,1.13093 3.23469,2.20496 -0.28608,1.16985 0.42483,0.99104 2.10499,-0.52948 2.89044,-2.61581 4.95391,-3.05565 3.53052,-0.75256 -0.98037,1.58628 -0.15868,1.45296 8.1298,-1.319 2.2,-0.73576 7.3,-2.36976 11.33333,-3.63111 4.03334,-1.26136 9.13334,-3.31861 11.33334,-4.57169 2.2,-1.25308 7.6,-3.03735 12,-3.96504 4.4,-0.9277 8.77356,-2.31294 9.71902,-3.07834 1.54986,-1.25465 4.73711,-1.3772 18.5771,-0.71426 3.10917,0.14892 5.20654,-0.77658 7.59134,-3.34983 3.0661,-3.30837 3.84147,-3.49852 11.15056,-2.73457 5.7471,0.60069 9.07736,0.25805 12.40866,-1.27668 2.50432,-1.15375 8.45332,-3.37796 13.21998,-4.9427 7.80063,-2.56069 15.01848,-5.21825 31.33334,-11.53674 9.15713,-3.54642 30.25217,-12.58647 40,-17.14158 5.13333,-2.39877 10.83333,-4.79845 12.66666,-5.33261 1.83334,-0.53415 9.43688,-3.86965 16.89679,-7.41221 13.28593,-6.30924 26.21085,-11.4812 32.02343,-12.8143 4.1122,-0.94312 7.01672,-4.57162 9.03028,-11.28116 l 1.73306,-5.77488 6.49156,0.40006 c 3.57035,0.22002 8.29155,0.86214 10.49155,1.42693 5.29568,1.35949 12.77544,-0.33229 14.94419,-3.38011 4.87186,-6.84658 8.48642,-10.48189 16.51533,-16.61008 4.83607,-3.69121 15.74559,-14.67816 24.24336,-24.41545 12.45913,-14.27648 16.70496,-20.25826 21.92981,-30.8961 3.56363,-7.25556 8.94239,-17.39192 11.95283,-22.52525 4.50251,-7.6776 5.62697,-11.01321 6.33863,-18.80273 0.56973,-6.23626 0.32457,-10.65575 -0.71804,-12.94404 -1.53638,-3.37196 -1.90271,-3.4651 -12.39464,-3.15098 -8.0369,0.24062 -12.18018,1.05564 -16.1448,3.17587 -3.22356,1.72391 -8.89067,3.13595 -14.32596,3.56951 -4.94595,0.39453 -10.05255,1.28457 -11.34799,1.97786 -2.20829,1.18186 -36.06748,11.37263 -52.32605,15.74884 -4.03334,1.08563 -11.53334,3.11815 -16.66667,4.5167 -22.83745,6.22197 -53.08673,13.18182 -65.33333,15.0321 -22.09215,3.33779 -28.56695,3.77627 -60.93548,4.12663 -37.22592,0.40293 -42.15079,1.62552 -54.39786,13.50405 -10.20209,9.89511 -16.59338,12.51386 -30.63001,12.55024 -10.60849,0.0275 -11.11615,0.15572 -8.33333,2.10488 3.89797,2.73026 4.05518,8.59107 0.23046,8.59107 -3.07832,0 -10.07882,-3.27955 -13.60964,-6.37575 -1.28837,-1.1298 -3.68837,-2.7378 -5.33333,-3.57333 -2.52861,-1.28439 -2.92251,-2.41031 -2.54879,-7.28565 0.4985,-6.50308 1.38688,-6.33194 -13.77536,-2.65394 -9.68857,2.35022 -15.8723,2.30786 -16.25172,-0.11133 -0.21297,-1.35797 5.7117,-4.99611 18.45628,-11.33333 10.46988,-5.20614 19.88964,-10.80734 21.30204,-12.66667 1.39264,-1.83333 4.02339,-4.99371 5.84608,-7.02304 1.8227,-2.02935 3.31399,-4.51516 3.31399,-5.52403 0,-3.15042 3.93901,-3.54498 12.45521,-1.24761 10.16056,2.74097 24.97335,2.69643 32.71243,-0.0984 3.20887,-1.15881 8.00887,-2.11819 10.66667,-2.13193 9.20385,-0.0476 40.51417,-9.77234 74.83236,-23.24232 31.37212,-12.31366 44.75824,-15.60001 70.66666,-17.34898 11.88278,-0.80216 15.5731,-1.39973 30.66667,-4.96581 11.67324,-2.75799 32.7612,-9.45223 39.87799,-12.65902 3.96621,-1.78716 17.16621,-9.11044 29.33333,-16.27396 12.16711,-7.16353 26.92201,-15.02474 32.78868,-17.46936 6.4926,-2.70545 12.28692,-6.18658 14.80717,-8.8959 3.22391,-3.46578 5.58523,-4.63707 10.66667,-5.29103 3.73792,-0.48104 9.02908,-2.46477 12.38449,-4.64312 6.77704,-4.39968 14.29667,-6.23051 16.50794,-4.01924 0.82521,0.82521 2.89182,1.5004 4.59246,1.5004 2.69678,0 2.98002,-0.46876 2.21556,-3.66667 -0.48208,-2.01666 -1.31453,-4.56666 -1.8499,-5.66666 -0.53536,-1.1 -1.38279,-4.26728 -1.88318,-7.0384 -0.50038,-2.77111 -2.02365,-6.97111 -3.38505,-9.33334 -1.81908,-3.15636 -2.51708,-7.23217 -2.63299,-15.37481 -0.13434,-9.43783 -0.65308,-11.82842 -3.50021,-16.13072 -3.26821,-4.9386 -3.31348,-5.3443 -2.03672,-18.25347 0.71817,-7.26143 1.89336,-15.14451 2.61153,-17.51795 1.569,-5.18529 0.48262,-6.156 -4.18148,-3.73624 -3.4065,1.76732 -3.46161,1.73067 -2.23773,-1.48837 1.77153,-4.65948 1.5758,-5.79336 -1.00007,-5.79336 -2.02068,0 -2.0004,-0.18605 0.19528,-1.79157 1.67815,-1.22709 2.21578,-2.80247 1.70634,-5 -0.40908,-1.76464 -1.04294,-4.45683 -1.40858,-5.982653 -0.48382,-2.019038 0.63188,-3.833807 4.09863,-6.666667 2.61988,-2.140844 6.26505,-5.542444 8.10036,-7.559111 1.83532,-2.016667 4.69603,-3.666667 6.35715,-3.666667 2.11265,0 3.14822,-0.897717 3.44626,-2.98751 0.3779,-2.64973 4.93112,-5.958691 9.56207,-6.949042 0.84187,-0.180036 2.63435,-0.802755 3.98328,-1.383819 3.08975,-1.330926 22.26805,0.09035 28.70405,2.127218 2.66383,0.843052 8.44334,2.958121 12.84334,4.700153 4.4,1.742032 8.90566,3.165607 10.0126,3.163499 1.10693,-0.0021 2.76141,1.1952 3.67662,2.660684 0.91522,1.465483 4.20954,3.885432 7.32074,5.377664 8.69357,4.169734 10.96853,6.648306 16.8635,18.372821 5.10324,10.14984 5.45608,11.57958 5.4018,21.88874 -0.032,6.06628 -0.57424,13.42959 -1.20512,16.36293 -0.63089,2.93333 -1.80826,8.63333 -2.61641,12.66666 -0.80815,4.03334 -3.26584,11.74551 -5.46155,17.13815 -4.18368,10.27512 -5.21406,20.24664 -2.32552,22.50514 0.91667,0.71673 3.75603,2.00756 6.30968,2.86852 2.55366,0.86096 6.56411,3.42738 8.91211,5.70317 3.09692,3.00164 4.93392,3.85921 6.69033,3.12328 1.33167,-0.55797 3.6371,-1.10129 5.12316,-1.20736 1.48607,-0.10613 5.16688,-2.17373 8.17958,-4.5948 5.26301,-4.22947 5.6889,-4.33864 10.87,-2.78635 4.58008,1.37223 6.26025,1.26778 11.15376,-0.69344 5.92637,-2.37516 15.21684,-3.77702 21.09472,-3.18305 3.5174,0.35545 22.75066,0.17259 34,-0.32325 3.66666,-0.16162 7.31337,-0.78922 8.10378,-1.39468 0.79043,-0.60546 3.20212,-0.59464 5.35934,0.024 2.66401,0.76402 6.01005,0.45852 10.43073,-0.95236 6.44427,-2.05672 6.47868,-2.09771 3.48609,-4.15211 -10.2436,-7.03221 -21.1214,-12.54961 -36.04661,-18.28347 -6.47203,-2.48637 -11.87421,-3.44883 -21.33333,-3.80079 -6.96667,-0.25921 -15.29211,-1.41316 -18.50098,-2.5643 -7.0387,-2.52503 -6.83236,-2.5147 -6.83236,-0.34242 0,0.9628 -1.68282,3.3628 -3.73962,5.33334 C 790.43588,171.4426 788.6804,172 782.31005,172 h -7.54402 l -5.13376,-7.66666 C 763.49424,155.16692 760,147.89483 760,144.28698 760,140.20579 779.51204,124 784.42585,124 c 1.06998,0 8.76187,3.04264 17.09311,6.76143 10.51004,4.69132 19.84221,7.72241 30.48104,9.90025 8.43333,1.72635 16.83333,3.70418 18.66667,4.39516 1.83333,0.69099 12.03333,2.8926 22.66666,4.89248 10.63334,1.99987 22.33334,4.53242 26,5.62788 6.55066,1.9571 23.10079,8.62667 27.64858,11.14218 1.27338,0.70434 2.99489,1.28062 3.82558,1.28062 0.8307,0 5.18883,2.24555 9.68476,4.9901 9.10224,5.55649 11.24464,6.82072 23.76679,14.02472 4.79428,2.75815 10.37588,6.55233 12.40357,8.43153 3.46454,3.21083 3.64552,3.92994 3.00319,11.93212 -0.77296,9.62946 -5.00643,18.18991 -11.2774,22.80398 -7.83267,5.76312 -23.16113,11.513 -43.72173,16.40052 -24.86179,5.90996 -38.7681,10.01161 -41.84648,12.34258 -1.94787,1.47495 -5.45288,2.40779 -9.04691,2.40779 -5.42027,0 -11.11747,2.41305 -14.43995,6.11603 -0.73333,0.81732 -3.73333,3.20537 -6.66666,5.30677 -2.93334,2.10141 -7.47951,5.64095 -10.1026,7.86564 -2.6231,2.22469 -6.13043,4.94489 -7.79407,6.04489 -5.12768,3.39043 -13.17757,15.83077 -17.50513,27.05251 -2.26915,5.88408 -6.7054,16.1544 -9.85835,22.82292 -3.15295,6.66852 -6.46668,14.52458 -7.36384,17.45791 -1.75283,5.73096 -10.62576,28.18279 -15.01756,38 -4.1734,9.32904 -11.59443,25.57728 -13.70183,30 -1.04829,2.2 -3.21822,7.58428 -4.82208,11.96507 -1.60385,4.38077 -5.05589,11.28077 -7.6712,15.33333 -5.90532,9.1506 -8.11709,13.07554 -13.54413,24.03494 -16.07181,32.4555 -26.66139,57.00917 -26.51395,61.47695 0.0579,1.75434 0.4079,2.43972 0.77778,1.52305 0.36988,-0.91667 1.86196,-1.66667 3.31572,-1.66667 1.45377,0 3.89474,-0.6698 5.4244,-1.48844 2.22816,-1.19248 2.64164,-1.1248 2.07941,0.34035 -0.38597,1.00584 0.14573,2.62049 1.18157,3.58811 1.60228,1.49676 1.74559,1.21041 0.96023,-1.91872 -0.82168,-3.27382 -0.69605,-3.46795 1.14296,-1.76634 1.13636,1.05144 1.79792,2.35484 1.47013,2.89644 -0.32778,0.5416 0.33175,0.62872 1.46563,0.19362 1.13388,-0.43511 1.82401,-1.17824 1.53365,-1.65139 -0.29036,-0.47316 1.16018,-0.92151 3.22343,-0.99632 2.63847,-0.0957 3.54615,0.39877 3.05961,1.66667 -0.38046,0.99148 -0.0276,1.80269 0.78423,1.80269 0.8118,0 1.47599,-0.6 1.47599,-1.33333 0,-0.73334 0.93541,-1.33334 2.07869,-1.33334 1.30808,0 1.70749,0.61786 1.07739,1.66667 -0.78943,1.314 -0.5798,1.32581 0.99069,0.0559 2.17573,-1.75946 8.27513,-0.81715 7.09288,1.09578 -0.40171,0.64996 -0.0308,1.18175 0.82431,1.18175 0.86986,0 1.19818,-0.929 0.74536,-2.10905 -0.44514,-1.16004 -0.80932,-2.34122 -0.80932,-2.62488 0,-0.28368 -0.9068,-0.1678 -2.01512,0.2575 -1.45674,0.559 -1.78092,0.16294 -1.16992,-1.4293 0.75217,-1.96014 1.15745,-1.98827 3.6818,-0.25568 1.5601,1.07078 2.68657,2.59514 2.50324,3.38745 -0.18334,0.79231 0.26666,1.44056 1,1.44056 0.73333,0 1.33333,-0.6 1.33333,-1.33333 0,-1.91914 3.65177,-1.64562 4.45029,0.33333 0.40176,0.99565 0.7149,0.72725 0.77778,-0.66667 0.0579,-1.28333 0.68644,-2.33333 1.39676,-2.33333 0.7103,0 0.89609,1.03035 0.41285,2.28965 -0.779,2.03004 -0.63893,2.06784 1.23524,0.33334 1.16261,-1.07598 1.76165,-2.55632 1.33119,-3.28966 -0.43047,-0.73333 0.2259,-0.51534 1.4586,0.48442 1.23269,0.99976 1.874,2.41198 1.42512,3.13829 -0.4489,0.72631 0.8845,0.20833 2.9631,-1.15107 2.4443,-1.59857 3.374,-1.81422 2.63196,-0.61052 -0.92369,1.4984 -0.39876,1.67326 2.69338,0.89718 4.4699,-1.12187 4.47833,-1.12288 7.63576,-0.91619 1.32661,0.0868 2.0412,0.75789 1.58797,1.49123 -0.45323,0.73333 -0.23263,1.33333 0.49021,1.33333 0.72284,0 1.58866,-1.05 1.92402,-2.33333 0.51513,-1.97122 0.63694,-1.91948 0.78485,0.33333 0.1284,1.95521 0.47083,2.20033 1.28357,0.91875 0.60967,-0.96136 3.3449,-1.95578 6.0783,-2.20982 2.73338,-0.25404 4.65394,-0.14605 4.26792,0.23999 -0.38604,0.38603 0.15538,1.55913 1.20314,2.60691 1.46444,1.46444 2.53768,1.56644 4.64052,0.44104 1.50452,-0.8052 2.47074,-1.89238 2.14715,-2.41595 -0.32359,-0.52359 1.15961,-1.0234 3.29599,-1.11071 2.73132,-0.1116 3.91557,0.48766 3.9896,2.01886 0.0668,1.38236 0.35085,1.56894 0.77777,0.51093 0.36988,-0.91667 1.55792,-1.66667 2.64009,-1.66667 1.08218,0 1.59676,0.6 1.14354,1.33334 -1.57695,2.55154 1.04713,1.3122 4.02505,-1.90104 2.75259,-2.97008 3.22993,-3.07158 5.84187,-1.2421 1.5644,1.09574 2.47153,2.59551 2.01586,3.3328 -0.45568,0.7373 0.45259,0.54624 2.01838,-0.42457 2.40805,-1.49303 3.04297,-1.45681 4.1191,0.23491 1.0853,1.70612 1.27523,1.65714 1.29266,-0.33334 0.0107,-1.28333 0.60158,-2.33333 1.3119,-2.33333 0.71031,0 0.922,1.05 0.47043,2.33333 -0.67025,1.90475 -0.49113,2.0272 0.97517,0.66667 2.13695,-1.9828 5.77778,-2.24511 4.59482,-0.33104 -0.454,0.7346 1.29084,0.0869 3.87744,-1.43913 2.79414,-1.64859 5.39714,-2.34163 6.41344,-1.70755 0.9408,0.58699 2.8845,1.24975 4.31933,1.47281 1.43484,0.22307 3.07564,1.14043 3.64625,2.03858 0.73171,1.15173 1.04348,0.97214 1.05788,-0.60938 0.0151,-1.66014 0.97247,-2.12852 3.68708,-1.80385 2.22939,0.26663 3.49734,1.13093 3.2347,2.20496 -0.28608,1.16985 0.42482,0.99104 2.10498,-0.52948 2.77111,-2.50781 4.97324,-3.08693 3.66032,-0.96259 -0.45322,0.73334 0.13254,1.33334 1.30156,1.33334 1.70436,0 1.84596,-0.52251 0.7145,-2.63666 -1.14988,-2.14857 -1.03656,-2.49294 0.6121,-1.86029 1.11275,0.427 1.68131,1.32955 1.26346,2.00564 -0.43954,0.7112 1.81142,0.98908 5.341,0.65935 5.00616,-0.46767 6.10438,-0.17503 6.12113,1.63102 0.0133,1.38942 0.38161,1.65732 1,0.72659 1.30575,-1.96523 11.56811,-3.88992 10.36548,-1.94403 -0.48213,0.78011 -0.26571,1.41838 0.48096,1.41838 1.24315,0 -1.41895,8.2775 -9.08587,28.25161 -5.79016,15.08469 -24.12485,50.09499 -34.43206,65.74839 -14.09167,21.40077 -29.61572,40.63813 -48.4414,60.02843 -11.5469,11.89321 -15.82247,17.22506 -16.57244,20.66666 -1.1241,5.15842 -6.49618,16.21614 -10.31694,21.23604 -3.41697,4.48939 -12.21049,9.25867 -18.83562,10.21575 -13.70927,1.98045 -21.71274,5.02692 -36.32662,13.82745 -44.66173,26.8955 -96.07536,45.59947 -146.52257,53.30406 -35.81217,5.46943 -72.92301,6.63995 -104.93005,3.3096 z m 249.59672,-270.5093 c 0,-0.32339 -0.6,-0.9588 -1.33334,-1.41203 C 736.6,540.21346 736,540.47804 736,541.25466 c 0,0.77661 0.6,1.41202 1.33333,1.41202 0.73334,0 1.33334,-0.26458 1.33334,-0.58797 z m -557.35375,-4.41203 c -0.0484,-2.37036 -2.32879,-4.59236 -3.22495,-3.14234 -0.50161,0.81162 -0.2412,1.47568 0.5787,1.47568 0.81989,0 1.11989,0.6 0.66666,1.33333 -0.45322,0.73333 -0.18864,1.33333 0.58798,1.33333 0.77661,0 1.40284,-0.45 1.39161,-1 z m 607.43224,-1.07356 c 2.44041,-1.95516 2.39787,-1.98292 -0.74516,-0.48605 -4.08137,1.94375 -4.83779,2.55961 -3.14373,2.55961 0.7154,0 2.4654,-0.93309 3.88889,-2.07356 z m 49.90109,1.07356 c -0.0484,-2.37036 -2.32878,-4.59236 -3.22494,-3.14234 -0.50162,0.81162 -0.2412,1.47568 0.57869,1.47568 0.81989,0 1.11989,0.6 0.66667,1.33333 -0.45323,0.73333 -0.18864,1.33333 0.58797,1.33333 0.77661,0 1.40284,-0.45 1.39161,-1 z m 55.43224,-1.07356 c 2.44042,-1.95516 2.39787,-1.98292 -0.74516,-0.48605 -4.08137,1.94375 -4.83778,2.55961 -3.14373,2.55961 0.7154,0 2.4654,-0.93309 3.88889,-2.07356 z m 7.25484,-0.5931 c 0,-0.73334 -0.26458,-1.33334 -0.58797,-1.33334 -0.32339,0 -0.9588,0.6 -1.41203,1.33334 -0.45322,0.73333 -0.18864,1.33333 0.58798,1.33333 0.77661,0 1.41202,-0.6 1.41202,-1.33333 z m -694,-1.33334 c 1.04291,-1.68746 -0.72217,-1.68746 -3.33333,0 -1.72359,1.11387 -1.68839,1.29532 0.25464,1.31292 1.24005,0.0107 2.62547,-0.57958 3.07869,-1.31292 z m 657.33334,0 c 1.0429,-1.68746 -0.72218,-1.68746 -3.33334,0 -1.72358,1.11387 -1.68838,1.29532 0.25464,1.31292 1.24006,0.0107 2.62547,-0.57958 3.0787,-1.31292 z M 260.33333,363.11697 c -0.91666,-0.36988 -2.41666,-0.36988 -3.33333,0 -0.91667,0.36988 -0.16667,0.67252 1.66667,0.67252 1.83333,0 2.58333,-0.30264 1.66666,-0.67252 z M 153.785,535.08452 c -0.47457,-1.32981 -1.02628,-2.73926 -1.22603,-3.13212 -0.19976,-0.39286 0.75952,-0.71429 2.13172,-0.71429 1.77587,0 2.1159,0.45671 1.1798,1.58463 -0.88902,1.0712 -0.77837,1.76354 0.34152,2.13684 1.2842,0.42806 1.2946,0.77597 0.0463,1.5475 -0.97377,0.60183 -1.95151,0.0395 -2.47324,-1.42256 z m 657.33333,0 c -0.47457,-1.32981 -1.02628,-2.73926 -1.22602,-3.13212 -0.19976,-0.39286 0.75952,-0.71429 2.13172,-0.71429 1.77586,0 2.11589,0.45671 1.1798,1.58463 -0.88903,1.0712 -0.77838,1.76354 0.34152,2.13684 1.2842,0.42806 1.2946,0.77597 0.0463,1.5475 -0.97377,0.60183 -1.9515,0.0395 -2.47324,-1.42256 z m -579.57444,-2.34993 c -0.49456,-1.28881 -0.10066,-1.68623 1.18302,-1.19363 1.05844,0.40616 1.59248,1.27562 1.18674,1.9321 -1.0219,1.65348 -1.51029,1.50128 -2.36976,-0.73847 z"
       id="path853"
       inkscape:connector-curvature="0"
       sodipodi:nodetypes="cssscscccccccssccccscsccccccccccscscsccccscsscccssccccssccccscscsssscscsccsscsccssccssccsscccssccccsscsccscccccscccsscccsccscsccccsccccccsccccscscsssccccccssssscscscscscscccssscssccccccccccssscccscsscccssccssccccsccccscccscccccccscccccccscsccccccccscssccscccsssscscssccscsssscscssccscscscssccscsscsscscccccccsscccscccccccscccccsccs" />
    <path
       style="fill:#000000;stroke-width:1.33333337"
       d="m 747.33333,743.70829 c -37.83992,-6.43712 -53.80322,-11.31079 -87.1308,-26.60147 -6.12193,-2.80873 -11.42729,-5.1068 -11.78969,-5.1068 -0.36239,0 -2.18445,-1.2 -4.04901,-2.66667 -1.86456,-1.46666 -4.28755,-2.66666 -5.3844,-2.66666 -1.09686,0 -4.90184,-2.08888 -8.45554,-4.64195 -7.05468,-5.06828 -20.12313,-10.02472 -26.43181,-10.02472 -4.91641,0 -18.75875,-5.04129 -18.75875,-6.83183 0,-0.71878 -1.8,-1.93437 -4,-2.70129 -2.2,-0.76693 -4.00224,-1.78572 -4.00498,-2.26399 -0.003,-0.47825 -1.22658,-2.87325 -2.71963,-5.3222 -2.28295,-3.74456 -3.03623,-4.18574 -4.73691,-2.7743 -1.11225,0.92309 -1.83842,1.12677 -1.6137,0.45264 0.2247,-0.67414 -0.19144,-1.2257 -0.92478,-1.2257 -0.73333,0 -1.18333,0.45 -1,1 0.18334,0.55 -3.56666,1 -8.33333,1 -4.88889,0 -8.66667,0.5812 -8.66667,1.33334 0,0.73333 -0.62429,1.33333 -1.38732,1.33333 -0.76302,0 -3.0486,1.22824 -5.07905,2.72941 -2.41855,1.78811 -6.28201,2.88386 -11.20264,3.17726 -7.95447,0.4743 -18.92475,4.9095 -20.17,8.1546 -0.40917,1.0663 -1.94192,1.93873 -3.40608,1.93873 -3.66163,0 -11.30531,6.99765 -17.36872,15.90072 -6.81988,10.01383 -9.22192,11.9356 -15.97971,12.78468 -6.9055,0.86764 -11.42242,-1.57429 -12.40332,-6.70545 -0.87006,-4.55152 1.0254,-19.46971 3.55508,-27.97995 2.7111,-9.12056 10.26598,-27.39127 13.10843,-31.70139 1.28333,-1.94597 2.33333,-4.10824 2.33333,-4.80505 0,-0.69681 2.85,-3.77044 6.33334,-6.83028 7.91997,-6.95708 9.56001,-9.8615 9.61941,-17.03542 0.0871,-10.515 19.18035,-45.62786 24.81099,-45.62786 1.04661,0 1.90293,-0.9 1.90293,-2 0,-1.1 -1.05,-1.98708 -2.33333,-1.97128 -6.53511,0.0804 -45.58734,3.97474 -59,5.88352 -8.43334,1.20016 -23.73334,3.33402 -34,4.74193 -52.62039,7.216 -87.6801,12.58745 -100,15.32087 -28.98047,6.42988 -57.89284,11.31424 -72.3168,12.21696 -6.42576,0.40214 -17.59804,1.87346 -24.82728,3.26958 -8.70338,1.68082 -18.92384,2.53842 -30.25162,2.53842 -12.2806,0 -22.67698,0.95857 -36.84673,3.39738 -19.49665,3.35564 -22.77056,4.38167 -31.81266,9.96999 -3.94919,2.44073 -4.72362,2.55875 -5.3903,0.82143 -0.42819,-1.11586 -2.20474,-2.96331 -3.94789,-4.10547 -2.78556,-1.82517 -4.10409,-1.8562 -10.88804,-0.25621 -4.24528,1.00125 -10.22484,3.13746 -13.287918,4.74717 -5.088433,2.67405 -5.512255,3.29359 -4.909228,7.17622 0.644385,4.14893 0.481793,4.30528 -6.870445,6.60654 -4.141748,1.29639 -11.357575,4.14639 -16.035171,6.33334 -4.677595,2.18696 -9.011933,3.97628 -9.631861,3.97628 -0.619928,0 -4.296903,1.57956 -8.171054,3.51013 -3.874152,1.93057 -9.541958,3.78757 -12.595126,4.12668 -4.598867,0.51079 -6.025752,0.0801 -8.317296,-2.51013 -3.538623,-3.99994 -9.542895,-17.71932 -11.621794,-26.55507 -1.416626,-6.02098 -2.191141,-7.08404 -6.386868,-8.76639 -4.2807,-1.71641 -5.0601902,-2.84009 -7.5334691,-10.85987 -2.8689235,-9.30268 -5.0491554,-22.9388 -6.49446354,-40.61918 -1.11853401,-13.68298 -0.5317951,-14.32618 13.06850064,-14.32618 9.944611,0 10.849004,0.24304 14.503407,3.89744 2.143589,2.14359 3.897436,4.739 3.897436,5.76758 0,2.5905 5.178052,7.0247 10.133816,8.67804 2.273599,0.75852 5.707112,2.95242 7.630031,4.87533 2.354974,2.35499 4.71751,3.40316 7.237674,3.21113 2.057803,-0.1568 4.475912,0.16883 5.373578,0.72362 2.546738,1.57397 15.073325,3.72249 20.791116,3.56602 2.841417,-0.0777 6.618768,0.81038 8.39411,1.97363 2.997271,1.96389 9.224795,1.60096 8.109428,-0.4726 -1.401548,-2.60559 -4.795633,-10.58788 -5.536974,-13.02197 -0.777499,-2.55282 0.659745,-3.35222 16.173611,-8.99583 23.79596,-8.65644 30.85726,-10.20239 46.60089,-10.20239 14.10147,0 13.31287,0.19876 31.75939,-8.00457 1.46666,-0.65224 5.96666,-2.47231 10,-4.0446 C 202.7,549.04523 208.7,546.6582 212,545.31303 c 3.3,-1.34519 9.6,-3.76309 14,-5.37312 4.4,-1.61004 10.7,-4.01535 14,-5.34513 3.3,-1.32979 7.8,-2.80078 10,-3.26886 2.2,-0.46809 7.61472,-2.62368 12.03272,-4.7902 4.418,-2.16652 10.418,-4.308 13.33333,-4.75884 2.91534,-0.45085 6.92082,-1.63508 8.90107,-2.63163 4.52108,-2.27521 8.79152,-2.23852 13.0376,0.112 3.7692,2.08654 8.0134,0.58286 12.57175,-4.45406 2.76748,-3.05804 7.38632,-3.67372 9.75916,-1.30088 1.70688,1.70688 24.21894,-5.0201 43.22628,-12.91674 6.07061,-2.52205 11.51666,-4.58556 12.10232,-4.58556 0.58566,0 3.60829,-1.13697 6.71697,-2.52661 3.10867,-1.38963 12.55213,-5.38056 20.98547,-8.86872 C 411.1,481.11652 418.9,477.78409 420,477.19928 c 1.1,-0.58481 8,-3.59185 15.33333,-6.68232 7.33334,-3.09045 13.96946,-6.10001 14.74694,-6.68788 2.31965,-1.75396 21.09121,-9.15233 23.25306,-9.16465 4.34854,-0.0248 12.05503,-6.2074 14.98806,-12.02431 2.59129,-5.13919 3.66164,-6.03511 7.66394,-6.41501 2.55859,-0.24287 6.8882,0.29642 9.62134,1.19845 4.2128,1.39035 5.8897,1.28853 11.01468,-0.66871 3.32492,-1.2698 6.04532,-2.73426 6.04532,-3.25436 0,-1.64836 11.09784,-12.87609 17.33333,-17.53621 7.31467,-5.46665 7.04581,-5.19041 22.67435,-23.2976 6.96244,-8.06667 13.36806,-15.26667 14.23472,-16 0.86665,-0.73334 4.3946,-7.33334 7.83986,-14.66667 3.44528,-7.33333 8.16559,-16.33333 10.48958,-20 5.49828,-8.67492 7.04256,-12.87032 8.49244,-23.07173 0.9645,-6.78636 0.78446,-9.22579 -0.93486,-12.66667 -2.1107,-4.22412 -2.22692,-4.26501 -13.21586,-4.65025 -9.6394,-0.33792 -11.72779,0.009 -16,2.66542 -3.11406,1.93556 -8.08759,3.36988 -13.58023,3.91638 -4.76667,0.47428 -12.71667,2.12484 -17.66667,3.66792 C 501.76979,324.5061 438.64763,341.3435 424,343.42569 c -3.3,0.46909 -9.3,1.71715 -13.33333,2.77343 -5.07432,1.3289 -19.86058,2.23553 -48,2.94312 -27.0525,0.68025 -41.64164,1.55296 -43.57902,2.60685 -1.60178,0.87133 -4.09054,1.58425 -5.53056,1.58425 -3.86196,0 -11.93842,5.10987 -20.02046,12.66667 -8.19544,7.66281 -14.69543,9.93472 -28.53663,9.97428 -4.95,0.0141 -9,0.5448 -9,1.17924 0,0.63444 1.2684,2.76604 2.81867,4.73688 1.55028,1.97085 2.45414,3.94791 2.0086,4.39344 -1.55226,1.55225 -11.83038,-2.50947 -14.99732,-5.92665 -1.75436,-1.893 -3.5786,-3.05299 -4.05384,-2.57774 -0.47524,0.47524 -1.64995,0.21187 -2.61044,-0.58526 -1.20544,-1.00043 -1.49704,-3.26824 -0.94144,-7.32176 0.79772,-5.82006 0.76906,-5.87243 -3.2135,-5.87243 -2.21012,0 -6.09097,0.86597 -8.62412,1.92439 C 220.545,368.36518 208,370.08997 208,368.45234 c 0,-0.6735 7.05,-4.85989 15.66667,-9.30306 22.05513,-11.37272 24.08918,-12.6959 25.78214,-16.7716 0.82756,-1.99228 2.60211,-3.97064 3.94344,-4.39638 1.34135,-0.42572 2.62682,-2.09566 2.8566,-3.711 0.36654,-2.5765 1.1542,-2.90528 6.41782,-2.67878 21.9467,0.9443 37.30598,0.75696 41.33333,-0.5042 2.56667,-0.80375 9.16667,-2.19944 14.66667,-3.10154 10.52981,-1.72706 45.26706,-12.77813 66.66666,-21.20885 30.67504,-12.08495 44.36322,-15.63168 64.86015,-16.80591 14.60992,-0.83697 30.22604,-3.41869 59.20073,-9.78728 10.41358,-2.28888 29.19586,-10.78459 30.38356,-13.74325 0.24446,-0.60894 1.55904,-1.10715 2.92132,-1.10715 1.36227,0 2.83776,-0.58395 3.27886,-1.29765 0.44109,-0.71371 3.0265,-2.33246 5.74536,-3.5972 2.71885,-1.26475 5.29609,-2.80883 5.72721,-3.43131 0.43112,-0.62247 2.67952,-2.15373 4.99643,-3.4028 2.31692,-1.24907 8.26418,-4.75421 13.21614,-7.78921 4.95196,-3.03499 12.90358,-7.13947 17.67024,-9.12107 4.76667,-1.98159 10.49864,-5.35172 12.73771,-7.48916 2.34263,-2.23629 6.99916,-4.64581 10.96776,-5.67525 3.79319,-0.98395 9.34712,-3.48712 12.34207,-5.56263 5.54474,-3.84251 9.7667,-4.44311 18.2858,-2.60127 3.86854,0.83639 4.33333,0.61951 4.33333,-2.022 0,-4.29774 -3.78007,-18.2119 -6.66929,-24.54922 -1.63998,-3.59719 -2.63331,-9.3413 -2.91026,-16.82898 -0.35085,-9.48615 -0.93269,-12.01867 -3.51514,-15.30019 -2.8754,-3.6538 -3.03372,-4.73785 -2.23438,-15.29892 0.47318,-6.25156 1.75952,-14.203 2.85856,-17.66985 1.09904,-3.46686 1.6191,-6.91686 1.1557,-7.66667 -1.17026,-1.8935 -4.3242,-1.70718 -5.13548,0.30338 -0.36988,0.91666 -0.71988,0.0167 -0.77778,-2 -0.0579,-2.01667 -0.85526,-3.67586 -1.77193,-3.68709 -1.19415,-0.0146 -1.14029,-0.35373 0.18997,-1.1961 1.39884,-0.88579 1.6341,-2.85337 0.95408,-7.97958 -0.58098,-4.379753 -0.41116,-6.803901 0.4767,-6.803901 0.75858,0 1.37925,-0.9 1.37925,-2 0,-1.1 0.47888,-2 1.06419,-2 0.58529,0 3.13529,-2.080949 5.66666,-4.624332 2.53136,-2.543381 5.91707,-4.643381 7.52379,-4.666667 1.60672,-0.02328 3.39753,-0.792334 3.97959,-1.709001 0.99045,-1.559859 1.17161,-2.089432 1.5991,-4.674519 0.48636,-2.941065 9.52451,-4.985061 21.5,-4.862268 14.10335,0.144611 21.17,1.703648 32,7.059816 4.03334,1.994756 8.34286,3.406912 9.57671,3.138126 1.23532,-0.269106 2.87276,0.687337 3.64407,2.128522 0.77038,1.439475 4.01126,3.88098 7.20196,5.425569 7.27989,3.52414 10.25654,6.723181 15.61788,16.784755 3.47033,6.51274 4.38182,9.98301 4.90297,18.66667 0.93052,15.50509 -3.51277,39.58853 -9.39708,50.93378 -2.68137,5.16983 -3.05597,20.74254 -0.54651,22.71911 0.91667,0.722 3.35863,1.71744 5.42659,2.21207 2.06796,0.49463 5.88928,3.02868 8.49184,5.63124 3.46232,3.46232 5.49431,4.52733 7.57341,3.9694 1.56282,-0.41939 4.05792,-0.77072 5.54467,-0.78073 1.48675,-0.0107 4.96693,-1.9682 7.73375,-4.35154 4.53389,-3.90549 5.91252,-4.3482 13.96349,-4.48389 4.91311,-0.0828 12.53292,-0.87723 16.93292,-1.76539 4.4,-0.88814 9.8,-1.53996 12,-1.44846 2.2,0.0915 8.5,0.38313 14,0.64808 5.5,0.26494 12.24749,-0.088 14.99443,-0.7842 3.23989,-0.8212 5.86848,-0.79815 7.48248,0.0656 1.78824,0.95704 3.19614,0.802 5.00557,-0.55122 1.53955,-1.15137 4.33037,-1.63621 7.18419,-1.24806 2.56666,0.34909 7.47213,-0.1304 10.90102,-1.06556 5.3875,-1.46931 6.01936,-1.99272 4.65162,-3.85316 -2.23319,-3.03766 -18.94264,-13.11338 -26.88598,-16.21214 -17.42265,-6.79669 -21.758,-7.87843 -33.44433,-8.34485 -6.66105,-0.26586 -14.76105,-1.40616 -18,-2.53402 -7.4848,-2.6063 -7.889,-2.58952 -7.889,0.32778 0,1.32946 -1.68283,4.02946 -3.73963,6 -5.5706,5.33697 -13.01852,5.01217 -18.66548,-0.81403 -2.34385,-2.4182 -4.26156,-4.92096 -4.26156,-5.56164 0,-0.64068 -0.85258,-2.11211 -1.89464,-3.26985 -1.04205,-1.15775 -3.08406,-5.13008 -4.5378,-8.82742 l -2.64316,-6.72241 2.87114,-2.68257 c 1.57912,-1.47542 5.55632,-4.75032 8.83821,-7.27758 3.28189,-2.52726 6.77475,-5.34501 7.76191,-6.26168 0.98714,-0.91666 2.69962,-1.66666 3.8055,-1.66666 2.41062,0 18.69882,6.37679 22.46551,8.79518 3.49096,2.24138 25.3478,8.53815 29.63687,8.53815 1.83621,0 6.11909,0.88203 9.51752,1.96007 3.39841,1.07804 11.87894,3.15072 18.84561,4.60596 6.96667,1.45524 18.96667,3.95409 26.66667,5.55302 7.7,1.59892 14.6,3.33432 15.33333,3.85647 0.73333,0.52213 6.98976,3.21127 13.90317,5.97585 6.91343,2.7646 14.41343,6.09308 16.66667,7.39664 27.50951,15.91494 39.15125,23.13065 41.09683,25.47234 5.3393,6.4264 0.4072,22.24747 -9.60794,30.82005 -6.30518,5.39702 -20.38626,11.30604 -37.39206,15.69135 -6.23334,1.6074 -14.25224,3.76533 -17.81978,4.7954 -3.56754,1.03007 -7.6551,1.87285 -9.08345,1.87285 -3.66063,0 -20.15879,5.69282 -21.76344,7.50963 -0.73333,0.83031 -4.75867,1.83441 -8.9452,2.23135 -6.88425,0.65272 -8.726,1.58169 -19.26753,9.71846 -29.02714,22.40538 -28.72967,22.02099 -43.2375,55.8739 -3.14273,7.33333 -6.25756,14.06165 -6.92185,14.95181 -0.66428,0.89016 -3.19684,7.19016 -5.62791,14 -8.55477,23.96336 -8.39333,23.56347 -17.37789,43.04819 -2.36701,5.13333 -7.08949,15.93334 -10.4944,24 -3.40489,8.06667 -6.95819,16.16667 -7.89619,18 -4.31438,8.43251 -8.36058,15.47058 -9.73329,16.93034 -2.77821,2.9544 -27.73544,54.89953 -29.22159,60.82082 -0.4794,1.91004 -1.71276,4.17087 -2.7408,5.02408 -1.02805,0.8532 -1.86918,2.67999 -1.86918,4.05953 0,1.37953 -1.2,4.74717 -2.66667,7.48366 -1.46667,2.73648 -2.66667,5.6261 -2.66667,6.42139 0,0.79528 -1.53793,2.78317 -3.41761,4.41755 -5.35768,4.65842 -3.88768,7.9691 6.67803,15.03997 5.09321,3.40853 12.10665,9.2286 15.58541,12.93347 8.27584,8.81377 37.15341,44.84368 37.15681,46.35974 10e-4,0.64687 3.45146,6.10072 7.66667,12.11967 8.82697,12.60412 9.98997,14.57824 20.25991,34.38979 10.95668,21.13633 11.73746,24.80387 8.86426,41.63779 -0.40406,2.36745 -3.10366,8.96745 -5.9991,14.66666 -6.31678,12.43359 -10.1226,15.3243 -24.8383,18.86587 -13.99938,3.36919 -19.91356,3.90609 -27.95608,2.53795 z M 536,677.92133 c 0,-1.14328 -0.6,-1.70787 -1.33333,-1.25464 -0.73334,0.45322 -1.33334,1.38864 -1.33334,2.07869 0,0.69005 0.6,1.25464 1.33334,1.25464 0.73333,0 1.33333,-0.93541 1.33333,-2.07869 z m 106.66667,-34.62982 c 0,-2.12889 -3.5435,-4.19244 -4.8889,-2.84705 -0.42562,0.42564 -0.41858,1.69976 0.0157,2.83139 1.02253,2.66469 4.87322,2.67705 4.87322,0.0157 z m -25.37004,-15.62483 c -0.0201,-0.91666 -2.12332,-3.16666 -4.67363,-5 -2.55032,-1.83333 -5.6838,-4.0805 -6.96331,-4.99372 -1.27949,-0.91321 -6.52636,-4.96348 -11.65969,-9.00058 -5.13333,-4.03711 -10.11449,-7.04682 -11.06925,-6.68823 -0.95475,0.3586 -1.39051,0.0931 -0.96835,-0.58997 0.42217,-0.68308 -1.20891,-3.2262 -3.62463,-5.65139 -2.4157,-2.4252 -7.01688,-8.15944 -10.22484,-12.74277 l -5.83264,-8.33334 h -16.39478 c -9.4716,0 -16.74214,0.56202 -17.21734,1.3309 -0.80458,1.30185 5.60075,7.877 7.7547,7.9603 0.59925,0.0232 2.99925,2.05898 5.33333,4.52399 3.73169,3.94104 15.10155,12.01072 22.91047,16.26057 8.04765,4.37979 8.36161,4.78542 6.83477,8.83048 -1.31233,3.47678 -1.07496,4.1374 2.52503,7.02715 5.08824,4.0844 10.17074,5.17693 12.14917,2.61156 1.31535,-1.70557 2.85511,-1.59035 12,0.89811 5.77007,1.5701 11.39103,3.36949 12.49103,3.99862 2.97762,1.70304 6.67177,1.45695 6.62996,-0.44168 z M 261.33333,363.476 c 0,-2.26072 -3.60589,-3.85902 -4.70265,-2.08443 -0.43344,0.70131 -0.41724,1.87511 0.036,2.60844 1.23207,1.99352 4.66667,1.60785 4.66667,-0.52401 z"
       id="path845"
       inkscape:connector-curvature="0" />
  </g>
</svg>
