<?xml version="1.0" encoding="UTF-8" standalone="no"?>
<!-- Created with Inkscape (http://www.inkscape.org/) -->

<svg
   xmlns:dc="http://purl.org/dc/elements/1.1/"
   xmlns:cc="http://creativecommons.org/ns#"
   xmlns:rdf="http://www.w3.org/1999/02/22-rdf-syntax-ns#"
   xmlns:svg="http://www.w3.org/2000/svg"
   xmlns="http://www.w3.org/2000/svg"
   xmlns:sodipodi="http://sodipodi.sourceforge.net/DTD/sodipodi-0.dtd"
   xmlns:inkscape="http://www.inkscape.org/namespaces/inkscape"
   version="1.1"
   id="svg20"
   viewBox="0 0 218.56 218.56"
   sodipodi:docname="logo_transparent.svg"
   inkscape:version="0.92.3 (2405546, 2018-03-11)">
  <metadata
     id="metadata26">
    <rdf:RDF>
      <cc:Work
         rdf:about="">
        <dc:format>image/svg+xml</dc:format>
        <dc:type
           rdf:resource="http://purl.org/dc/dcmitype/StillImage" />
        <dc:title></dc:title>
      </cc:Work>
    </rdf:RDF>
  </metadata>
  <defs
     id="defs24">
    <clipPath
       clipPathUnits="userSpaceOnUse"
       id="clipPath1518">
      <g
         id="use1520"
         inkscape:label="Clip" />
    </clipPath>
  </defs>
  <sodipodi:namedview
     pagecolor="#ffffff"
     bordercolor="#666666"
     borderopacity="1"
     objecttolerance="10"
     gridtolerance="10"
     guidetolerance="10"
     inkscape:pageopacity="0"
     inkscape:pageshadow="2"
     inkscape:window-width="1920"
     inkscape:window-height="1017"
     id="namedview22"
     showgrid="false"
     inkscape:zoom="4"
     inkscape:cx="94.009448"
     inkscape:cy="114.13209"
     inkscape:window-x="-8"
     inkscape:window-y="1072"
     inkscape:window-maximized="1"
     inkscape:current-layer="layer1"
     inkscape:snap-nodes="false" />
  <g
     inkscape:groupmode="layer"
     id="layer3"
     inkscape:label="YELLOW"
     style="display:inline">
    <path
       transform="matrix(1.0009151,0,0,1,-0.22487373,0.04653468)"
       style="fill:#fdce24;stroke-width:0.31999999"
       d="m 103.84,172.10118 c -1.83556,-0.1865 -3.49316,-0.5724 -4.570765,-1.06412 C 97.666826,170.30587 93.76,167.49118 93.76,167.06791 c 0,-0.10873 -0.83456,-1.07472 -1.854576,-2.14665 -1.624349,-1.70703 -2.04864,-1.97807 -3.417869,-2.1834 -0.859814,-0.12894 -2.466694,-0.51346 -3.570848,-0.8545 -2.390752,-0.73843 -3.446249,-1.86938 -5.640195,-6.04336 -0.786333,-1.496 -2.068362,-3.8 -2.848954,-5.12 -1.372406,-2.32076 -1.508537,-2.44439 -4.123411,-3.74454 -2.969433,-1.47645 -6.459667,-4.22406 -9.515123,-7.49059 -1.088154,-1.16332 -2.481318,-2.45932 -3.095923,-2.88 -0.614605,-0.42068 -1.475808,-1.42285 -1.913786,-2.22705 -0.725462,-1.33208 -0.780249,-1.70224 -0.615689,-4.16 l 0.18063,-2.69782 -2.891594,-5.71501 C 50.716714,114.42118 50.143363,112.58117 50.150992,108 c 0.0064,-3.81517 0.251824,-4.91231 2.613216,-11.68 1.050502,-3.010714 1.347302,-4.407485 1.631933,-7.68 0.630681,-7.251203 1.860493,-10.694592 6.081328,-17.027299 2.825987,-4.239955 3.283411,-5.997303 2.452448,-9.421895 C 62.24728,59.377501 62.253962,56.689322 62.954269,52.4 l 0.561629,-3.44 h 1.163923 c 2.350973,0 9.582765,1.278509 10.82951,1.91455 0.69585,0.354999 1.815418,0.64545 2.487927,0.64545 0.672508,0 3.756342,-0.847475 6.85296,-1.883277 C 90.119398,47.874211 94.006544,47.04 96.950086,47.04 c 0.696388,0 2.118832,0.468262 3.521394,1.159222 2.27883,1.122656 2.40564,1.14746 4.0199,0.786205 0.91676,-0.205161 2.33634,-0.797606 3.15461,-1.316544 2.09548,-1.328912 3.31219,-1.429174 7.84644,-0.646582 4.54184,0.783904 10.49493,2.681299 14.10066,4.494224 3.23445,1.626253 5.99458,2.243475 10.03248,2.243475 3.59999,0 4.36134,-0.305178 6.98554,-2.80007 0.64412,-0.612372 1.32567,-1.017888 1.51457,-0.901143 0.72025,0.445139 3.86159,6.173664 4.2231,7.701213 0.20827,0.88 0.6307,2.248 0.93875,3.04 1.03153,2.652122 1.59247,5.044259 1.59247,6.791171 0,3.321155 0.69866,4.749091 4.53564,9.270067 0.91351,1.076356 1.43486,2.240426 2.33826,5.220816 0.89226,2.943655 1.56765,4.460861 2.90436,6.524375 0.95796,1.478825 1.74174,2.868902 1.74174,3.089059 0,0.48703 1.99526,5.690474 2.69356,7.024512 0.81189,1.55107 0.60654,3.53351 -0.77695,7.50068 -0.70214,2.01337 -1.27661,3.96009 -1.27661,4.32606 0,0.36596 -0.459,1.74265 -1.02,3.05932 -0.90692,2.12855 -1.01004,2.67774 -0.93025,4.95394 0.30708,8.76016 -0.0288,12.691 -1.31883,15.43547 -0.37256,0.7926 -1.55343,2.33603 -2.62416,3.42986 -1.07072,1.09382 -2.45076,2.82732 -3.06676,3.85221 -1.70035,2.82903 -4.19187,5.3601 -6.46656,6.56921 -1.10739,0.58864 -3.16544,2.16585 -4.57344,3.50491 -3.42545,3.25773 -4.53518,4.05665 -6.64137,4.78129 -1.75949,0.60535 -6.04149,3.29854 -7.01516,4.41222 -0.27641,0.31616 -0.67507,1.11222 -0.88591,1.76903 -0.21085,0.6568 -0.98553,1.81377 -1.72151,2.57104 -1.42223,1.46337 -5.78217,4.0106 -8.36647,4.888 -0.85608,0.29064 -2.07245,0.86749 -2.70305,1.28189 -0.63059,0.41439 -1.79453,0.90099 -2.58653,1.08133 -1.72506,0.3928 -9.26377,0.37278 -13.28,-0.0353 z m 12.82305,-2.33556 c 2.79258,-0.5343 4.33859,-1.24493 6.77695,-3.115 1.08803,-0.83445 1.68193,-1.52844 1.68549,-1.96954 0.01,-1.23726 -1.71747,-5.95349 -2.24155,-6.11983 -0.2775,-0.0881 -2.24006,0.26366 -4.36122,0.78163 -4.6525,1.1361 -12.22047,1.81009 -15.79886,1.40702 -2.17825,-0.24536 -2.43446,-0.34992 -2.817463,-1.1499 -0.4496,-0.93907 -0.561437,-0.97388 -3.257232,-1.01397 -1.538871,-0.0229 -1.797463,-0.12288 -2.136007,-0.82603 -1.028883,-2.13697 -3.304649,-11.11592 -4.17695,-16.48 -0.20975,-1.28982 -0.392819,-1.61896 -0.94432,-1.69782 -0.554877,-0.0793 -0.871907,0.27796 -1.67801,1.89112 -0.861123,1.72325 -0.993878,2.32794 -0.993878,4.52698 0,2.39263 0.08499,2.70261 1.483158,5.40973 1.859559,3.60044 1.611476,4.02823 -1.193148,2.05746 -1.127508,-0.79228 -2.663728,-1.84256 -3.413831,-2.33397 -1.460582,-0.95684 -1.513933,-1.05525 -1.828886,-3.3735 -0.183149,-1.34808 -0.296048,-1.52 -0.99816,-1.52 -1.03745,0 -2.369133,0.8886 -2.369133,1.58087 0,0.301 0.628477,1.35662 1.396614,2.34583 0.768138,0.98921 2.15897,3.1747 3.090736,4.85665 0.977962,1.76533 2.140967,3.39891 2.751159,3.86433 0.581373,0.44343 2.24623,1.15068 3.699686,1.57166 2.279248,0.66016 2.797978,0.94884 3.772224,2.09926 2.636243,3.11297 4.762298,5.05048 6.417194,5.8481 3.356427,1.61773 12.141497,2.31442 17.135437,1.35892 z m 13.8724,-10.27406 c 1.28507,-1.08132 1.24659,-1.83373 -0.13545,-2.64916 -0.92128,-0.54357 -1.12,-0.84872 -1.12,-1.71989 0,-0.93188 0.16232,-1.13495 1.35151,-1.69079 1.07028,-0.50027 1.41054,-0.86478 1.63517,-1.75172 0.42026,-1.65944 0.0421,-5.34697 -0.76199,-7.43081 l -0.70648,-1.83082 0.7211,-1.77667 c 1.23314,-3.03827 2.32659,-4.24207 5.01128,-5.51702 1.70947,-0.81183 3.05141,-1.20316 4.61841,-1.34679 2.06937,-0.18968 2.30148,-0.29257 3.67756,-1.63017 1.45586,-1.41516 1.46711,-1.44246 1.27881,-3.10349 l -0.18997,-1.67577 2.05325,-0.93099 c 2.12412,-0.96312 2.75135,-1.65734 2.75135,-3.04517 0,-0.94246 -0.72193,-1.42952 -3.04,-2.05097 -3.53163,-0.94679 -3.55816,-0.94241 -5.21685,0.86179 -1.52549,1.65932 -2.1855,1.94653 -2.87915,1.25288 -0.67562,-0.67562 -0.42027,-1.4503 1.15927,-3.51687 0.8488,-1.11052 1.94389,-2.70554 2.43354,-3.54448 0.48965,-0.83894 1.19522,-1.73894 1.56793,-2 1.53323,-1.07391 4.07085,-0.22264 4.84265,1.62451 0.32965,0.78898 0.82728,1.27333 1.67001,1.62545 0.66024,0.27586 1.38084,0.73868 1.60134,1.02848 0.58137,0.76409 0.53182,5.91951 -0.0774,8.05717 -0.27428,0.96236 -0.76591,2.78753 -1.09252,4.05594 -0.80895,3.14169 -2.06394,5.31785 -4.12742,7.157 -2.11657,1.88647 -3.0834,2.15722 -4.57036,1.27989 -0.91025,-0.53705 -1.29446,-0.59398 -2.24238,-0.33225 -1.88568,0.52066 -3.19235,1.63283 -4.12284,3.50916 -0.7817,1.57628 -0.84759,1.96043 -0.63114,3.68 0.31979,2.54064 0.91623,5.33431 1.25426,5.87485 0.641,1.025 4.51064,0.71097 4.51134,-0.36611 6.4e-4,-1.01734 1.93041,-4.32564 3.0697,-5.26261 0.68753,-0.56543 1.69352,-1.47662 2.23554,-2.02487 0.91883,-0.92939 1.08854,-0.98137 2.50878,-0.76839 1.51755,0.22757 1.52992,0.22195 3.28549,-1.49222 0.96922,-0.94636 2.61133,-2.80065 3.64914,-4.12065 1.03781,-1.32 2.39142,-3.03096 3.00803,-3.80213 1.27811,-1.59851 1.53119,-2.4402 2.09383,-6.96365 0.27839,-2.23817 0.31455,-4.02629 0.11648,-5.76 -0.53938,-4.72125 -0.35803,-8.00311 0.60231,-10.8996 0.47875,-1.44396 0.87045,-2.99559 0.87045,-3.44807 0,-0.56103 -0.62572,-1.50713 -1.96735,-2.97462 -2.46756,-2.69908 -2.78393,-2.95193 -3.69343,-2.95193 -1.06768,0 -5.08578,2.12941 -5.84902,3.09972 -0.905,1.15052 -0.81153,2.51162 0.31988,4.65801 0.92241,1.74991 0.94516,1.88327 0.476,2.79051 -0.27099,0.52404 -0.79129,1.11259 -1.15622,1.30789 -0.57454,0.30749 -0.81327,0.19075 -1.7802,-0.87051 -0.61417,-0.67409 -2.3274,-2.88162 -3.80719,-4.90562 -1.97267,-2.69815 -2.69211,-3.94151 -2.6965,-4.66013 -0.004,-0.66922 -0.31466,-1.27588 -0.9791,-1.91245 -0.53523,-0.51278 -1.40882,-1.61127 -1.94131,-2.441094 -0.79948,-1.245878 -0.90674,-1.623558 -0.61561,-2.167548 0.23121,-0.432013 0.67128,-0.658778 1.27845,-0.658778 0.88065,0 1.9316,0.694662 1.9316,1.276758 0,0.577258 2.39772,1.710826 4.42427,2.091655 2.4447,0.459411 3.04233,0.305683 4.759,-1.22416 1.37563,-1.22592 2.86165,-1.824253 4.53072,-1.824253 0.97776,0 1.42025,0.288784 3.13447,2.045667 1.09779,1.12512 2.29926,2.690853 2.66992,3.479403 0.96564,2.0543 1.99206,2.95101 2.85143,2.49109 1.10002,-0.58872 0.773,-3.14036 -0.94533,-7.37616 -0.39269,-0.968 -1.11642,-2.768 -1.6083,-4 -0.49187,-1.232 -1.42445,-3.536 -2.07239,-5.12 -0.64793,-1.584 -1.53196,-3.816 -1.9645,-4.96 -1.11758,-2.955862 -1.83324,-3.983027 -4.05818,-5.824614 -1.07861,-0.892765 -2.34282,-2.228058 -2.80934,-2.967319 -0.88336,-1.399757 -1.79205,-1.915574 -3.95177,-2.243216 -1.89807,-0.287945 -5.71473,-2.367933 -7.9546,-4.335069 -2.27526,-1.998208 -4.76708,-5.24334 -4.62145,-6.018556 0.25469,-1.355696 7.31239,-3.80833 10.13172,-3.520893 0.8461,0.08626 1.21943,0.35848 1.74922,1.275485 0.66117,1.144412 0.66322,1.198569 0.11141,2.949097 -0.30917,0.980803 -0.71642,1.878634 -0.90499,1.995178 -0.43579,0.269331 -0.90005,-0.451037 -0.90641,-1.406423 -0.004,-0.535564 -0.30747,-0.862748 -1.11462,-1.2 -2.14953,-0.898131 -3.2344,-0.301424 -2.71903,1.495546 0.35503,1.23792 2.49023,4.387686 3.36127,4.95841 1.5772,1.033427 3.44004,-0.312205 4.50897,-3.257076 0.97097,-2.674976 0.97996,-5.145388 0.0273,-7.496896 -1.07825,-2.661504 -2.52771,-3.138211 -4.59269,-1.510464 -2.04641,1.613104 -5.75622,2.16626 -10.03611,1.496452 -2.50729,-0.392394 -3.54698,-0.763162 -5.44291,-1.941012 -0.7936,-0.493027 -2.0896,-0.99591 -2.88,-1.117516 -0.7904,-0.121607 -1.97817,-0.492333 -2.63949,-0.823837 -0.66132,-0.331504 -2.46132,-0.821834 -4,-1.089623 -1.53868,-0.267788 -3.90159,-0.76831 -5.25091,-1.112272 -3.32844,-0.84846 -4.74321,-0.800681 -6.70772,0.226532 -1.30456,0.682134 -2.08606,0.855923 -3.92147,0.872044 -2.10897,0.01853 -2.41253,-0.06626 -3.79707,-1.060566 l -1.504855,-1.080704 -3.287786,0.189328 c -3.564521,0.205264 -5.913334,0.876019 -12.014841,3.431091 -3.110228,1.302445 -3.319524,1.449898 -3.890663,2.741053 -1.54312,3.488474 -4.465085,6.818045 -6.965072,7.936678 -1.543017,0.690432 -2.191459,0.549165 -2.710752,-0.590556 C 69.405427,62.5496 69.43505,62.295856 69.869222,61.816102 70.720448,60.87551 70.510813,59.867824 69.217459,58.683158 68.567072,58.087421 67.943405,57.6 67.831539,57.6 c -0.111865,0 -0.386425,-0.342 -0.610131,-0.76 -0.479558,-0.896061 -0.0022,-2.12 0.826598,-2.12 0.27802,0 1.639652,1.103706 3.025853,2.452682 2.344093,2.281142 2.575898,2.427376 3.314423,2.090883 1.487593,-0.677795 1.382438,-3.125498 -0.23769,-5.532682 -0.872899,-1.296953 -3.548605,-2.506246 -5.578125,-2.521053 -2.257683,-0.01648 -3.156665,1.41736 -3.103661,4.95017 0.02822,1.881616 0.279396,2.596912 2.125773,6.054026 0.830573,1.555142 1.096272,4.024384 0.569805,5.295395 -0.217984,0.526256 -1.380496,1.762003 -2.58336,2.746102 -3.137302,2.566727 -4.394976,4.077008 -5.690554,6.833536 -1.516076,3.225667 -1.535638,5.221341 -0.08638,8.81225 1.040836,2.578937 3.742986,6.213673 5.366551,7.218691 0.898723,0.556326 1.308137,1.792749 0.837597,2.52953 -0.351264,0.550016 -1.243869,0.587753 -4.325565,0.182876 -3.157299,-0.414812 -5.671562,0.973712 -6.967005,3.847594 -0.400406,0.88828 -0.644045,2.50412 -0.796131,5.28 -0.239581,4.37281 -0.04054,5.66929 1.775161,11.56266 1.037108,3.36623 1.74881,4.37955 2.351824,3.34856 0.194416,-0.33239 0.839104,-1.3394 1.43264,-2.23779 0.59354,-0.89839 1.220221,-2.06543 1.392628,-2.59343 0.172409,-0.528 0.788188,-1.896 1.3684,-3.04 0.580214,-1.144 1.290876,-3.016 1.579254,-4.16 0.304099,-1.20636 0.88895,-2.50775 1.392442,-3.09841 0.477465,-0.56012 1.753145,-2.02242 2.834848,-3.24955 1.526716,-1.731989 2.017612,-2.542245 2.19415,-3.621602 C 70.786426,94.535011 72.451341,92.16 74.243971,92.16 c 1.368202,0 1.778829,0.728451 1.153479,2.046275 -0.693607,1.461671 -0.650052,2.692301 0.141222,3.990199 0.773536,1.268796 0.709914,2.241176 -0.178672,2.730846 -2.537645,1.3984 -3.657398,2.52632 -4.922912,4.9588 -0.721827,1.38744 -1.817466,3.27312 -2.434752,4.19041 -0.617283,0.91728 -1.122336,1.86931 -1.122336,2.11563 0,0.61572 3.236166,0.5995 5.309142,-0.0266 0.863972,-0.26095 1.822858,-0.39525 2.130858,-0.29843 0.788058,0.2477 0.696512,1.31091 -0.16,1.8582 -0.747066,0.47736 -6.645178,1.7947 -8.035363,1.7947 -1.291955,0 -1.700605,0.28405 -3.127466,2.17392 -1.535584,2.03387 -2.162656,3.53522 -2.183126,5.2269 -0.01619,1.33893 0.308294,1.68074 2.253581,2.37383 2.868092,1.02188 4.384227,1.15342 5.673504,0.49222 2.317433,-1.1885 4.306691,-4.13513 4.53887,-6.7233 0.154928,-1.72705 0.190022,-1.78357 1.107254,-1.78357 0.71298,0 1.121831,0.25906 1.65313,1.04745 1.103914,1.6381 1.228931,3.19671 0.431904,5.3846 -0.378272,1.03837 -0.76193,2.34646 -0.852573,2.90685 -0.158038,0.97705 -0.107603,1.03298 1.227738,1.36158 3.311027,0.81477 5.388576,2.57004 5.39135,4.55501 6.4e-4,0.474 -0.467363,1.47289 -1.049539,2.24 -0.577904,0.76148 -1.386406,2.17651 -1.796672,3.14451 -0.873392,2.06073 -1.23064,2.56 -1.831773,2.56 -0.625472,0 -0.602045,-3.50452 0.02899,-4.33884 0.2584,-0.34164 0.4744,-1.16926 0.48,-1.83915 0.0094,-1.12979 -0.08832,-1.26103 -1.349824,-1.81225 -0.748,-0.32684 -2.501785,-0.76451 -3.897299,-0.9726 -1.609962,-0.24006 -3.743306,-0.89345 -5.837062,-1.78775 -1.814856,-0.7752 -3.722786,-1.40944 -4.239829,-1.40944 -1.210905,0 -1.945795,0.75002 -1.945795,1.98586 0,0.7973 0.502067,1.49444 2.691446,3.73714 1.480298,1.51635 3.495245,3.71713 4.477668,4.89063 3.077222,3.67572 7.31158,6.1465 9.262521,5.40476 1.540083,-0.58554 3.525069,-2.27519 5.045975,-4.29522 0.838156,-1.11321 2.626406,-3.05362 3.973884,-4.31202 2.40105,-2.24231 2.449728,-2.31856 2.438103,-3.81911 -0.01245,-1.60894 -0.42993,-3.07379 -0.97137,-3.40841 -0.176688,-0.1092 -0.420269,-0.87919 -0.541293,-1.71109 -0.313014,-2.15162 -0.727715,-2.79531 -3.654598,-5.67254 -2.063392,-2.02839 -2.858685,-3.09161 -3.82976,-5.12 -2.107648,-4.40246 -2.312147,-5.0479 -2.484003,-7.84 -0.21089,-3.42622 0.446326,-6.22855 1.878797,-8.01107 1.121945,-1.396104 6.202784,-5.371157 7.95263,-6.221823 0.616,-0.299459 1.803722,-0.999565 2.639382,-1.555792 1.184468,-0.788393 1.519517,-1.200969 1.52,-1.871709 6.4e-4,-0.770678 -0.141187,-0.879232 -1.359382,-1.041094 -0.748,-0.09939 -2.8,-0.146048 -4.56,-0.103686 -1.7796,0.04283 -4.012294,-0.107869 -5.030003,-0.339514 C 76.540941,88.171075 76.079926,86.4 79.569226,86.4 c 2.044886,0 2.389987,-0.455293 1.600304,-2.111277 -0.926125,-1.942105 -3.671287,-3.021254 -4.804029,-1.888509 -0.264119,0.264119 -0.650839,1.308119 -0.859379,2.32 -0.512228,2.485437 -0.964544,3.275277 -3.161306,5.520304 -2.008371,2.052503 -3.271923,2.466663 -4.321958,1.416624 C 67.174685,90.808973 67.446045,90.311248 69.36,89.204566 71.943946,87.71048 72.690378,86.202195 72.569136,82.72 L 72.48,80.16 70.32,80.06538 c -1.725717,-0.425434 -2.035,-1.512884 -2.16,-2.057279 0,-1.079462 -0.167587,-2.426115 -0.372416,-2.99256 -0.487565,-1.348333 -0.06821,-2.362112 1.978269,-4.782461 1.123753,-1.329052 1.588112,-2.168732 1.657606,-2.997395 0.07378,-0.87975 0.296493,-1.246493 0.944672,-1.555597 1.744576,-0.831961 2.282957,0.09905 2.821936,4.879914 0.178576,1.584 0.330442,3.96 0.337485,5.28 0.02019,3.783626 1.012618,4.39191 3.966563,2.431194 2.012429,-1.335776 4.09184,-2.285213 5.785885,-2.64178 1.076365,-0.226553 1.28,-0.395529 1.28,-1.06214 0,-0.731914 -0.169078,-0.820458 -2.204118,-1.154256 -2.377156,-0.389911 -3.052743,-0.917453 -3.726397,-2.909802 -0.294119,-0.869869 -0.225725,-1.249789 0.47336,-2.629363 C 81.552282,66.986934 81.92,66.055718 81.92,65.80448 c 0,-0.927738 1.796051,-2.417098 3.182109,-2.638736 0.964381,-0.154211 1.538259,-0.476774 2.028893,-1.140394 0.376281,-0.508947 1.374867,-1.368592 2.219078,-1.91032 0.844214,-0.541731 2.030224,-1.581228 2.635578,-2.309996 0.992483,-1.19482 1.242473,-1.325034 2.543868,-1.325034 1.277485,0 1.609927,0.16361 2.894893,1.42471 1.371501,1.346023 1.568234,1.432132 3.562151,1.559095 1.77865,0.113254 2.25446,0.02794 3.02632,-0.542733 0.70982,-0.524794 1.08951,-0.611091 1.68784,-0.38361 0.96474,0.366794 1.18113,0.922244 1.17215,3.008711 -0.008,1.747638 -0.52966,2.720662 -1.81184,3.376374 -1.05971,0.541939 -1.72176,0.445392 -4.29703,-0.62664 C 97.935184,63.11832 95.99121,63.043005 92.48,63.974954 90.016045,64.628941 89.883942,64.726352 87.308874,67.788035 86.52703,68.717626 86.300966,68.8 84.531731,68.8 c -2.379433,0 -3.526102,0.894803 -2.686832,2.096672 0.350608,0.502083 2.470387,1.423328 3.275075,1.423328 0.867706,0 2.453728,-1.64937 3.230948,-3.36 1.069222,-2.353322 1.813814,-2.93193 4.301971,-3.342992 2.543779,-0.420253 3.803718,-0.138934 4.141289,0.924662 0.31737,0.99994 -0.05259,1.694116 -1.397206,2.621671 -0.94113,0.649216 -1.307066,1.17903 -1.589757,2.301702 -0.522301,2.074243 -0.458272,2.913363 0.272781,3.574957 0.777741,0.703846 0.863354,2.08 0.129398,2.08 -0.280832,0 -0.910022,-0.284413 -1.398204,-0.632029 -1.469927,-1.046681 -2.48568,-1.332374 -2.705008,-0.760822 -0.259236,0.675561 -0.01174,0.984323 1.355526,1.691017 0.648058,0.33496 1.826288,1.28593 2.618288,2.113261 3.351597,3.50112 5.315789,4.189171 6.82812,2.391875 0.56501,-0.671484 0.86625,-1.506224 1.01044,-2.8 0.42693,-3.830832 1.16454,-7.621417 1.61758,-8.312844 0.64173,-0.979408 2.16671,-1.715709 3.67832,-1.775988 1.8835,-0.07511 2.18166,0.4368 1.15662,1.985744 -0.46809,0.707335 -0.85108,1.617863 -0.85108,2.023396 0,0.405532 -0.48909,1.66862 -1.08686,2.80686 -0.59778,1.138244 -1.18939,2.57353 -1.3147,3.18953 -0.36703,1.804275 -2.37301,5.342557 -3.71757,6.557286 C 100.22951,86.655533 100.02959,86.72 97.919078,86.72 H 95.68 l 0.01018,1.2 c 0.0056,0.66 0.199187,1.448874 0.430202,1.753056 0.5656,0.744739 4.291508,1.59071 7.239618,1.643757 2.14055,0.03852 2.53455,-0.05195 3.64466,-0.836813 0.68456,-0.484 1.54856,-0.883632 1.92,-0.88807 0.37144,-0.0044 2.60478,-0.991559 4.96299,-2.193607 l 4.28765,-2.185539 0.85857,-1.88639 c 0.4722,-1.037517 1.08951,-2.076343 1.37177,-2.308506 0.99147,-0.815459 0.96259,-2.088285 -0.11122,-4.902458 -1.15902,-3.037513 -1.41052,-3.428956 -2.45925,-3.827683 -1.62056,-0.616134 -3.32125,1.147834 -4.19786,4.354051 C 113.18229,78.306054 112.13077,80 111.55271,80 c -0.44014,0 -2.38792,-4.522106 -2.52879,-5.871018 -0.0647,-0.619593 0.75521,-1.324896 4.69254,-4.03662 2.81635,-1.939677 4.84294,-1.746276 7.12904,0.680336 1.12926,1.198652 2.16894,3.129088 2.49205,4.627116 0.44885,2.080996 1.01108,2.277124 7.22245,2.519508 4.57634,0.178579 5.82116,0.330227 6.80985,0.829603 1.76227,0.890089 2.15015,0.803414 2.15015,-0.48048 0,-2.897168 -5.15426,-4.236471 -8.88309,-2.308215 -1.49125,0.771149 -3.03825,0.934365 -3.75691,0.396365 -0.91656,-0.68615 -0.36247,-1.441593 1.83445,-2.501072 2.03418,-0.980998 2.35165,-1.576022 1.8449,-3.457926 C 130.14489,68.858406 128.19692,66.56 127.30687,66.56 c -0.98635,0 -2.33549,-0.834902 -3.21728,-1.990989 -1.05024,-1.376937 -3.60579,-2.617257 -6.7161,-3.259613 -4.68972,-0.96855 -5.6137,-0.619833 -6.47289,2.442935 -0.61673,2.198464 -1.4719,2.876592 -2.24167,1.77759 -0.35383,-0.505171 -0.49607,-1.459369 -0.4891,-3.281126 0.0185,-4.843146 1.90944,-7.510119 5.33424,-7.523533 1.20403,-0.0047 1.4695,0.144781 2.54777,1.434736 0.68337,0.81753 1.48563,1.44607 1.85592,1.454045 1.05936,0.02282 2.98085,0.810925 4.96891,2.038022 1.36787,0.844301 2.21865,1.147933 3.21651,1.147933 2.21738,0 3.99564,1.127005 6.31146,4 1.13494,1.408 3.97193,4.38927 6.30443,6.625046 2.33249,2.235776 4.42331,4.505444 4.64627,5.043706 0.23909,0.577219 0.34017,1.657203 0.24643,2.632874 -0.16632,1.730921 -0.34597,1.95727 -4.04883,5.10152 -1.16492,0.98918 -1.24463,1.625164 -0.31961,2.550188 0.51335,0.513348 0.91252,0.6276 1.68,0.480864 1.00045,-0.19128 1.7697,-0.90119 4.15785,-3.837116 0.98848,-1.215213 1.3985,-1.494208 2.08,-1.415328 1.44411,0.167148 1.2536,1.254924 -0.7037,4.017987 -2.79914,3.951459 -4.8822,6.087808 -6.95742,7.135373 -1.0295,0.519686 -2.24054,0.944886 -2.69121,0.944886 -3.14244,0 -4.96164,3.279014 -2.5013,4.508483 2.61044,1.304483 4.75102,3.752627 5.97113,6.829077 0.78746,1.98552 0.91196,7.19765 0.25088,10.50263 -0.56749,2.83707 -2.53616,5.46755 -6.27955,8.39061 -1.52124,1.18787 -2.8914,2.46788 -3.04482,2.84448 -0.61384,1.50678 -2.11211,8.47139 -4.51868,21.00472 -1.11536,5.80874 -1.07725,7.81092 0.19832,10.41808 0.73503,1.50235 0.97766,1.74192 1.76415,1.74192 0.51419,0 1.34132,-0.36132 1.89647,-0.82844 z M 93.494803,131.3104 c 0.321859,-0.29127 0.585197,-0.86939 0.585197,-1.28469 0,-1.05055 -1.913414,-3.07973 -2.769478,-2.93703 -0.631191,0.1052 -0.646935,0.19307 -0.286679,1.59976 0.37552,1.46628 1.272999,3.15156 1.678336,3.15156 0.114087,0 0.470765,-0.23832 0.792624,-0.5296 z m 27.484927,-4.54748 c 1.30915,-0.3284 3.21061,-0.77125 4.22548,-0.98412 2.92313,-0.61312 6.03975,-2.35851 8.49749,-4.75881 1.77895,-1.73738 2.37899,-2.59568 3.1894,-4.56209 1.25855,-3.05378 1.53716,-5.76394 0.91493,-8.89982 -0.46086,-2.32266 -1.32231,-3.77077 -1.96703,-3.30665 -0.82975,0.59732 -1.91256,3.32306 -2.26904,5.7118 -0.58102,3.89341 -1.33318,5.34442 -3.28242,6.33217 -1.97642,1.00153 -2.60854,1.86292 -2.60854,3.55464 0,2.12045 -0.53026,2.54996 -3.1481,2.54996 -2.024,0 -2.38598,-0.10311 -3.75866,-1.07067 -1.47172,-1.03737 -1.60119,-1.06722 -4.16288,-0.96 -3.05903,0.12805 -3.99337,0.62932 -5.20039,2.78999 -0.8471,1.51639 -0.76969,2.00402 0.44439,2.79952 2.15976,1.41512 5.51193,1.7105 9.12537,0.80408 z M 100.16,125.44196 c 3.35666,-0.65244 4.49856,-1.03871 4.8142,-1.6285 0.41658,-0.77838 0.11581,-1.35235 -2.05299,-3.91774 -3.986631,-4.71566 -4.766164,-6.69785 -3.302628,-8.39791 1.172528,-1.36201 3.202768,-1.25364 6.176388,0.3297 2.59357,1.38098 3.11285,1.34967 5.76612,-0.3476 3.08939,-1.97626 5.82816,-1.79818 7.45368,0.48466 0.83598,1.17402 0.84408,2.28662 0.0264,3.6277 -0.81621,1.3387 -0.82133,1.30029 0.35196,2.63659 0.90924,1.03558 1.14081,1.13114 2.74103,1.13114 1.90606,0 2.98582,-0.40517 2.98582,-1.1204 0,-1.07217 1.10941,-2.65451 2.41334,-3.44212 1.43691,-0.86792 2.56322,-2.51581 2.25985,-3.30636 -0.10373,-0.27032 -0.62603,-0.45112 -1.30316,-0.45112 -1.42332,0 -1.49353,-0.65759 -0.17079,-1.59947 1.60715,-1.14439 2.90855,-3.34182 3.1047,-5.24234 0.17052,-1.65222 0.14142,-1.72854 -1.14449,-3.00166 -0.7257,-0.71849 -1.31946,-1.44197 -1.31946,-1.607736 0,-0.995911 -6.901,-2.890874 -9.18066,-2.520938 -3.08148,0.500054 -3.4466,2.031264 -1.02253,4.288194 1.8628,1.73435 2.62283,3.13983 2.16278,3.99946 -0.48822,0.91225 -1.45225,0.65929 -3.33656,-0.87551 -2.67142,-2.1759 -3.07835,-2.04484 -4.7196,1.52 -0.96906,2.10484 -1.26003,2.48 -1.92343,2.48 -1.06535,0 -1.37461,-0.46695 -1.85624,-2.80277 l -0.41295,-2.00277 1.01639,-0.87723 c 1.28644,-1.1103 4.2328,-4.832433 4.2328,-5.347294 0,-0.656669 4.0522,-4.329936 4.7766,-4.329936 0.3696,0 2.29007,0.727171 4.2677,1.615936 3.40242,1.529072 5.4114,1.98295 6.31237,1.426122 0.20696,-0.127911 0.6327,-0.83074 0.94609,-1.561844 0.70323,-1.640569 1.11254,-1.977846 2.73724,-2.255552 2.2035,-0.376636 2.4,-0.493081 2.4,-1.422227 0,-2.029309 -2.24193,-2.273078 -4.48,-0.48712 l -1.44,1.149101 -2.88,-0.220304 c -1.73808,-0.13295 -3.48268,-0.478547 -4.4,-0.871613 l -1.52,-0.651312 -1.57932,0.679408 c -1.05699,0.454704 -2.24763,0.679072 -3.6,0.678397 -1.80901,-9.6e-4 -2.38951,0.183034 -5.5416,1.755872 l -3.52092,1.756874 -1.59908,-0.504989 c -1.22141,-0.385719 -1.80692,-0.424403 -2.47908,-0.163789 -1.23776,0.479914 -1.10149,1.22713 0.52999,2.906048 1.49586,1.539357 3.39001,5.463602 3.39001,7.023342 0,1.13972 -0.69141,2.0463 -1.44932,1.90034 -0.72522,-0.13966 -2.61136,-2.54274 -4.18368,-5.33031 -1.414776,-2.508265 -2.000216,-2.771289 -5.407,-2.42925 -1.408,0.141363 -4.623283,0.263737 -7.145072,0.271945 -5.341514,0.01738 -5.325085,0.0082 -5.658557,3.165775 -0.252333,2.38929 0.131671,3.53071 1.410269,4.1919 1.174339,0.60727 3.71257,3.14766 6.005219,6.01033 1.963453,2.45162 2.483463,2.80692 4.108141,2.80692 1.392234,0 2.204669,0.38449 3.631002,1.7184 1.520169,1.42166 1.719948,2.14275 1.270076,4.5843 -0.347273,1.88471 -0.485724,2.13478 -1.43167,2.58587 -0.874739,0.41714 -1.259859,0.43567 -2.33831,0.11256 -1.554852,-0.46584 -1.646071,-1.06376 -0.331098,-2.17023 0.95281,-0.80174 1.225699,-1.92616 0.761222,-3.13656 C 95.207942,117.54219 93.676346,116.8 92.48,116.8 c -1.378915,0 -2.557638,-0.6861 -3.658496,-2.12949 -1.290339,-1.69183 -6.295232,-6.09751 -7.407014,-6.52021 -2.539642,-0.96557 -3.263456,1.12512 -1.231524,3.55719 1.460535,1.74815 2.305344,3.4115 2.56849,5.05711 0.230742,1.44299 0.310992,1.53172 2.368544,2.61884 2.800691,1.47976 7.849024,4.52905 8.518176,5.14514 1.248582,1.14957 3.607187,1.4799 6.521824,0.91338 z m 14.10067,-8.17621 c 2.92456,-2.01645 3.8534,-3.03858 3.88868,-4.27925 0.0391,-1.37366 -0.38903,-1.70896 -2.37809,-1.86268 -1.57201,-0.12148 -1.8469,-0.0275 -3.89871,1.33274 -2.79181,1.85085 -3.79331,1.89959 -6.36868,0.30998 -2.38334,-1.47108 -4.05062,-1.73979 -4.98672,-0.80369 -0.37243,0.37243 -0.67715,0.93592 -0.67715,1.25221 0,1.24772 4.30547,4.3497 7.47711,5.38706 0.75157,0.24581 2.06987,0.37247 3.05253,0.29328 1.41128,-0.11375 2.12747,-0.4137 3.89103,-1.62965 z"
       id="path122"
       inkscape:connector-curvature="0"
       sodipodi:nodetypes="csccsscccscccscssssccscssscscsssccccsscssccsssssccscccsccsccccccssccssccsccccsssccccccccsccccccccsccsscscsccccccscccccccsccscscsscscccccccsccsscsscccccccccccccccccccccscsccsscscccsssscscscsscscccccssssscssccccccccscccccscccsscsccsccsccscscccccsssccccccsscsccccccssscsccccccccsccssscscccsccssscccccscssscscscccssscsccccssscccsccccccsccccccscscsscscsscsscscccsccsscccscccsscscccccscscccccsccccccsccsssccccccccsccccssccscccssccccscccssccccscccscccscccsscsscsccsccccccsscscsccccccssscccc" />
    <path
       transform="matrix(1.0009151,0,0,1,-1.7262464,-0.45346532)"
       sodipodi:nodetypes="cssc"
       inkscape:connector-curvature="0"
       id="path184"
       d="M 69.474038,182.98514 C 63.524243,180.16352 56.523325,175.71576 50.212316,168.42831 38.39404,154.78151 27.829256,133.06225 26.651016,109.9902 25.911606,95.511214 28.916143,79.874468 38.140927,65.990716"
       style="fill:none;stroke:#fdce24;stroke-width:1.60000002;stroke-linecap:butt;stroke-linejoin:miter;stroke-miterlimit:4;stroke-dasharray:none;stroke-opacity:1" />
    <path
       transform="matrix(1.0009151,0,0,1,-1.7262464,-0.45346532)"
       sodipodi:nodetypes="cccccc"
       inkscape:connector-curvature="0"
       id="path991"
       d="m 69.677163,183.25076 c 2.845697,-4.64088 2.182004,-8.70432 0.07006,-12.47948 -1.411215,2.14565 -2.896115,5.52764 -1.954065,10.47026 -0.753156,1.44866 0,0 -0.753156,1.44866 -4.915414,0.23197 -7.010378,2.4257 -8.341258,4.23756 6.011439,1.61862 9.036556,-0.90169 10.978421,-3.677 z"
       style="opacity:1;fill:#fdce24;fill-opacity:1;stroke:#000000;stroke-width:0;stroke-linecap:butt;stroke-linejoin:miter;stroke-miterlimit:4;stroke-dasharray:none;stroke-opacity:1" />
    <path
       transform="matrix(1.0009151,0,0,1,-1.7262464,-0.45346532)"
       sodipodi:nodetypes="cccccc"
       inkscape:connector-curvature="0"
       id="path1077"
       d="m 63.359677,179.74072 c 1.78537,-4.26193 3.593893,-8.5847 0.211002,-13.58151 -2.02375,2.83887 -2.959412,6.45494 -1.207522,11.9907 l -0.833558,1.31706 c -6.356063,-0.26536 -8.539749,2.00596 -9.450944,3.45935 4.534017,2.08421 9.126352,-0.0931 11.281022,-3.1856 z"
       style="opacity:1;fill:#fdce24;fill-opacity:1;stroke:none;stroke-width:1px;stroke-linecap:butt;stroke-linejoin:miter;stroke-opacity:1" />
    <path
       transform="matrix(1.0009151,0,0,1,-1.7262464,-0.45346532)"
       sodipodi:nodetypes="ccccccc"
       inkscape:connector-curvature="0"
       id="path1077-4"
       d="m 57.479701,174.44486 c 2.710386,-2.27567 3.79827,-9.89594 0.64069,-12.87839 -1.968507,2.55161 -2.625897,5.73439 -1.530257,12.12952 l -0.980168,1.30852 c -4.72237,-1.49993 -7.745926,0.45073 -10.641496,2.21665 3.413749,2.75732 9.235924,1.3495 11.527095,-1.53207 0.167678,-0.16801 0.829202,-1.06209 0.984136,-1.24423 z"
       style="opacity:1;fill:#fdce24;fill-opacity:1;stroke:none;stroke-width:1px;stroke-linecap:butt;stroke-linejoin:miter;stroke-opacity:1" />
    <path
       transform="matrix(1.0009151,0,0,1,-1.7262464,-0.45346532)"
       sodipodi:nodetypes="ccccccc"
       inkscape:connector-curvature="0"
       id="path1077-4-8"
       d="m 52.869039,170.10792 c 2.356832,-2.40825 2.654318,-9.90504 -0.635845,-12.71071 -1.968507,2.55161 -1.59243,9.4558 -0.563081,11.60828 l -0.980168,0.97707 c -3.241866,-1.10218 -5.801383,-1.38333 -10.000681,0.3384 3.502138,3.26555 8.683497,3.42662 11.129348,1.07538 0.167678,-0.16801 0.895493,-1.10628 1.050427,-1.28842 z"
       style="opacity:1;fill:#fdce24;fill-opacity:1;stroke:none;stroke-width:1px;stroke-linecap:butt;stroke-linejoin:miter;stroke-opacity:1" />
    <path
       transform="matrix(1.0009151,0,0,1,-1.7262464,-0.45346532)"
       sodipodi:nodetypes="ccccccc"
       inkscape:connector-curvature="0"
       id="path1077-4-2"
       d="m 47.795165,164.26953 c 2.429136,-2.33817 2.720145,-9.42719 -0.06244,-12.65964 -2.093507,2.52036 -2.047772,6.96876 -1.530257,10.47327 l -0.652043,1.7304 c -1.762313,-1.06224 -7.161113,-1.64868 -10.056683,0.11724 3.294762,3.54975 8.668306,4.10608 11.207907,1.45796 1.093511,-1.11923 0.938577,-0.93709 1.093511,-1.11923 z"
       style="opacity:1;fill:#fdce24;fill-opacity:1;stroke:none;stroke-width:1px;stroke-linecap:butt;stroke-linejoin:miter;stroke-opacity:1" />
    <path
       transform="matrix(1.0009151,0,0,1,-1.7262464,-0.45346532)"
       sodipodi:nodetypes="ccccccc"
       inkscape:connector-curvature="0"
       id="path1077-4-2-2"
       d="m 43.533999,158.33563 c 1.677835,-2.49285 3.029505,-8.69799 0.357405,-12.08512 -2.093507,2.52036 -2.865364,6.76989 -1.530257,10.47327 l -0.652043,1.7304 c -1.762313,-1.06224 -5.525929,-2.31159 -9.70313,-1.42956 2.521364,3.88121 6.326015,5.03416 11.053228,3.18154 0.51323,-0.30333 0.290191,-1.51592 0.474797,-1.87053 z"
       style="opacity:1;fill:#fdce24;fill-opacity:1;stroke:none;stroke-width:1px;stroke-linecap:butt;stroke-linejoin:miter;stroke-opacity:1" />
    <path
       transform="matrix(1.0009151,0,0,1,-1.7262464,-0.45346532)"
       sodipodi:nodetypes="ccccccc"
       inkscape:connector-curvature="0"
       id="path1077-4-2-8"
       d="m 39.781303,152.07377 c 1.835386,-0.77568 3.845145,-8.3647 1.06256,-11.59715 -2.093507,2.52036 -3.016522,6.53126 -2.155257,10.03578 l -0.652043,1.7304 c -1.762313,-1.06224 -5.223613,-3.17993 -10.400433,-2.16401 3.076012,4.04975 5.605806,5.32483 11.520407,4.11421 1.355505,-1.42784 -0.398475,-1.21074 0.624766,-2.11923 z"
       style="opacity:1;fill:#fdce24;fill-opacity:1;stroke:none;stroke-width:1px;stroke-linecap:butt;stroke-linejoin:miter;stroke-opacity:1" />
    <path
       transform="matrix(1.0009151,0,0,1,-1.7262464,-0.45346532)"
       sodipodi:nodetypes="ccccccc"
       inkscape:connector-curvature="0"
       id="path1077-4-2-8-3"
       d="m 36.457007,145.66594 c 2.012162,-2.212 3.80095,-7.14937 1.526598,-11.95071 -2.159798,2.9623 -3.016522,5.93464 -2.597198,9.48335 l -0.475267,2.30493 c -2.712487,-1.76935 -6.303768,-3.30428 -11.303811,-1.9569 3.106342,3.81361 6.441592,4.83674 11.805067,3.33257 1.355505,-1.42784 0.132582,0.26517 1.044611,-1.21324 z"
       style="opacity:1;fill:#fdce24;fill-opacity:1;stroke:none;stroke-width:1px;stroke-linecap:butt;stroke-linejoin:miter;stroke-opacity:1" />
    <path
       transform="matrix(1.0009151,0,0,1,-1.7262464,-0.45346532)"
       sodipodi:nodetypes="ccccccc"
       inkscape:connector-curvature="0"
       id="path1077-4-2-8-3-4"
       d="m 33.455876,138.30126 c 2.012162,-2.212 3.918367,-5.38355 1.644015,-10.18489 -2.159798,2.9623 -2.950231,4.18897 -2.530907,7.73768 l -0.188005,3.54237 c -2.513613,-2.38807 -5.243107,-4.32075 -10.618801,-3.4595 2.023585,4.23345 6.088039,6.40563 11.142154,5.10033 1.355505,-1.42784 -0.360485,-1.25758 0.551544,-2.73599 z"
       style="opacity:1;fill:#fdce24;fill-opacity:1;stroke:none;stroke-width:1px;stroke-linecap:butt;stroke-linejoin:miter;stroke-opacity:1" />
    <path
       transform="matrix(1.0009151,0,0,1,-1.7262464,-0.45346532)"
       sodipodi:nodetypes="ccccccc"
       inkscape:connector-curvature="0"
       id="path1077-4-2-8-3-4-5"
       d="m 31.073096,131.05341 c 2.122647,-1.74796 4.890639,-4.07983 3.765336,-10.0965 -2.778517,2.34358 -4.231863,4.21106 -4.475452,7.60509 l -0.718335,3.03414 c -2.071671,-2.54275 -3.462126,-4.77851 -9.876383,-4.69065 1.935196,4.38813 4.461738,6.59822 10.466028,6.72923 1.355505,-1.42784 -0.07322,-1.1029 0.838806,-2.58131 z"
       style="opacity:1;fill:#fdce24;fill-opacity:1;stroke:none;stroke-width:1px;stroke-linecap:butt;stroke-linejoin:miter;stroke-opacity:1" />
    <path
       transform="matrix(1.0009151,0,0,1,-1.7262464,-0.45346532)"
       sodipodi:nodetypes="ccccccc"
       inkscape:connector-curvature="0"
       id="path1077-4-2-8-3-4-5-1"
       d="m 28.968308,122.87331 c 2.372647,-1.43546 5.703139,-2.86108 5.390336,-9.75275 -3.153517,1.59358 -5.950613,5.14856 -5.725452,8.13634 l -0.912562,2.83499 c -1.82167,-2.66775 -2.861648,-4.82936 -8.838405,-6.304 0.935196,3.63813 2.823042,7.66571 9.233581,8.10922 1.355505,-1.42784 -0.05952,-1.54539 0.852502,-3.0238 z"
       style="opacity:1;fill:#fdce24;fill-opacity:1;stroke:none;stroke-width:1px;stroke-linecap:butt;stroke-linejoin:miter;stroke-opacity:1" />
    <path
       transform="matrix(1.0009151,0,0,1,-1.7262464,-0.45346532)"
       sodipodi:nodetypes="ccccccc"
       inkscape:connector-curvature="0"
       id="path1077-4-2-8-3-4-5-1-2"
       d="m 27.974136,116.03289 c 1.798123,-0.86093 5.128615,-1.71203 5.611307,-8.78047 -3.153517,1.59358 -5.729642,4.22048 -5.946423,7.25245 l -1.221921,0.5369 c -1.247146,-2.27001 -2.508095,-5.18292 -7.910328,-6.17142 0.493255,2.04714 1.718188,7.48893 8.084533,7.84405 1.382832,-0.68151 0,0 1.382832,-0.68151 z"
       style="opacity:1;fill:#fdce24;fill-opacity:1;stroke:none;stroke-width:1px;stroke-linecap:butt;stroke-linejoin:miter;stroke-opacity:1" />
    <path
       transform="matrix(1.0009151,0,0,1,-1.7262464,-0.45346532)"
       sodipodi:nodetypes="ccccccc"
       inkscape:connector-curvature="0"
       id="path1077-4-2-8-3-4-5-1-2-3"
       d="m 27.255193,109.1165 c 2.549424,-0.3306 7.205741,-3.61238 6.892938,-9.17822 -3.949012,1.15164 -6.480943,3.77854 -6.962889,7.20826 l -1.221921,0.5369 c -0.805204,-3.99358 -2.729066,-7.746182 -6.761279,-8.29274 -0.125464,2.13553 1.143663,9.12411 6.670319,9.83279 z"
       style="opacity:1;fill:#fdce24;fill-opacity:1;stroke:none;stroke-width:1px;stroke-linecap:butt;stroke-linejoin:miter;stroke-opacity:1" />
    <path
       transform="matrix(1.0009151,0,0,1,-1.7262464,-0.45346532)"
       sodipodi:nodetypes="ccccccc"
       inkscape:connector-curvature="0"
       id="path1077-4-2-8-3-4-5-1-2-3-5"
       d="m 27.539068,100.24209 c 2.770395,0.11134 7.205741,-3.612376 6.892938,-9.178216 -3.949012,1.15164 -6.480943,3.292404 -6.962889,7.208259 l -1.177727,0.227541 c 0.170215,-3.052215 -0.696134,-7.304239 -6.098366,-9.265011 -0.346435,2.798443 0.834304,10.007992 5.742241,11.158607 z"
       style="opacity:1;fill:#fdce24;fill-opacity:1;stroke:none;stroke-width:1px;stroke-linecap:butt;stroke-linejoin:miter;stroke-opacity:1" />
    <path
       transform="matrix(1.0009151,0,0,1,-1.7262464,-0.45346532)"
       sodipodi:nodetypes="ccccccc"
       inkscape:connector-curvature="0"
       id="path1077-4-2-8-3-4-5-1-2-3-5-1"
       d="m 28.412256,91.819727 c 2.770395,0.11134 8.178013,-2.419133 8.528123,-7.984973 -3.949012,1.15164 -5.950613,2.010773 -8.023549,6.015016 l -1.266116,-0.302789 c 0.08183,-3.096409 -2.066153,-7.922957 -4.639958,-8.734681 -1.009348,2.931026 -0.447327,9.919604 4.46061,11.070219 z"
       style="opacity:1;fill:#fdce24;fill-opacity:1;stroke:none;stroke-width:1px;stroke-linecap:butt;stroke-linejoin:miter;stroke-opacity:1" />
    <path
       transform="matrix(1.0009151,0,0,1,-1.7262464,-0.45346532)"
       sodipodi:nodetypes="ccccccc"
       inkscape:connector-curvature="0"
       id="path1077-4-2-8-3-4-5-1-2-3-5-1-2"
       d="m 30.529685,83.696088 c 2.864145,0.08009 7.615053,-0.798734 8.996413,-5.677074 -2.855262,0.08914 -5.778278,0.671623 -8.663714,3.582116 l -1.047366,-0.365289 c 0.08183,-3.096409 -1.52732,-8.635425 -4.351125,-9.509649 -1.509348,3.618526 -0.140536,8.839069 3.548651,11.489685 z"
       style="opacity:1;fill:#fdce24;fill-opacity:1;stroke:none;stroke-width:1px;stroke-linecap:butt;stroke-linejoin:miter;stroke-opacity:1" />
    <path
       transform="matrix(1.0009151,0,0,1,-1.7262464,-0.45346532)"
       sodipodi:nodetypes="ccccccc"
       inkscape:connector-curvature="0"
       id="path1077-4-2-8-3-4-5-1-2-3-5-1-2-1"
       d="m 33.133918,76.254506 c 2.551645,0.98634 9.583802,0.357516 10.965162,-4.520824 -3.636512,-0.12961 -6.653277,0.171623 -10.319963,3.238366 l -0.828616,-1.209039 c 0.80058,-2.596409 0.78518,-8.291675 -2.351125,-10.353399 -1.478098,2.118526 -1.953036,9.151569 1.454901,12.270935 z"
       style="opacity:1;fill:#fdce24;fill-opacity:1;stroke:none;stroke-width:1px;stroke-linecap:butt;stroke-linejoin:miter;stroke-opacity:1" />
    <path
       transform="matrix(1.0009151,0,0,1,-1.7262464,-0.45346532)"
       sodipodi:nodetypes="ccccccc"
       inkscape:connector-curvature="0"
       id="path1077-4-2-8-3-4-5-1-2-3-5-1-2-1-3"
       d="m 37.282882,68.721067 c 3.551645,1.14259 6.214508,2.150295 10.877118,-1.290545 -1.949012,-1.22336 -4.815233,-2.277406 -9.950669,-0.179413 L 37.036965,66.22957 c 0.73808,-1.440159 1.66018,-7.041675 -0.351125,-10.384649 -1.853098,2.149776 -3.734286,8.307819 -0.826349,12.177185 z"
       style="opacity:1;fill:#fdce24;fill-opacity:1;stroke:none;stroke-width:1px;stroke-linecap:butt;stroke-linejoin:miter;stroke-opacity:1" />
    <path
       transform="matrix(1.0009151,0,0,1,-1.7262464,-0.45346532)"
       sodipodi:nodetypes="cccc"
       inkscape:connector-curvature="0"
       id="path1301"
       d="m 37.547177,65.771966 c 0.613369,-5.764769 6.910217,-9.586632 10.40625,-9.78125 0.10413,7.230003 -9.202015,10.48359 -9.202015,10.48359 z"
       style="opacity:1;fill:#fdce24;fill-opacity:1;stroke:none;stroke-width:1px;stroke-linecap:butt;stroke-linejoin:miter;stroke-opacity:1" />
    <path
       transform="matrix(-1.0009151,0,0,1,220.63084,0.266177)"
       sodipodi:nodetypes="cssc"
       inkscape:connector-curvature="0"
       id="path184-1"
       d="M 69.474038,182.98514 C 63.524243,180.16352 56.523325,175.71576 50.212316,168.42831 38.39404,154.78151 27.829256,133.06225 26.651016,109.9902 25.911606,95.511214 28.916143,79.874468 38.140927,65.990716"
       style="fill:none;stroke:#fdce24;stroke-width:1.60000002;stroke-linecap:butt;stroke-linejoin:miter;stroke-miterlimit:4;stroke-dasharray:none;stroke-opacity:1" />
    <path
       transform="matrix(-1.0009151,0,0,1,220.63084,0.266177)"
       sodipodi:nodetypes="cccccc"
       inkscape:connector-curvature="0"
       id="path991-8"
       d="m 69.677163,183.25076 c 2.845697,-4.64088 2.182004,-8.70432 0.07006,-12.47948 -1.411215,2.14565 -2.896115,5.52764 -1.954065,10.47026 -0.753156,1.44866 0,0 -0.753156,1.44866 -4.915414,0.23197 -7.010378,2.4257 -8.341258,4.23756 6.011439,1.61862 9.036556,-0.90169 10.978421,-3.677 z"
       style="opacity:1;fill:#fdce24;fill-opacity:1;stroke:#000000;stroke-width:0;stroke-linecap:butt;stroke-linejoin:miter;stroke-miterlimit:4;stroke-dasharray:none;stroke-opacity:1" />
    <path
       transform="matrix(-1.0009151,0,0,1,220.63084,0.266177)"
       sodipodi:nodetypes="cccccc"
       inkscape:connector-curvature="0"
       id="path1077-5"
       d="m 63.359677,179.74072 c 1.78537,-4.26193 3.593893,-8.5847 0.211002,-13.58151 -2.02375,2.83887 -2.959412,6.45494 -1.207522,11.9907 l -0.833558,1.31706 c -6.356063,-0.26536 -8.539749,2.00596 -9.450944,3.45935 4.534017,2.08421 9.126352,-0.0931 11.281022,-3.1856 z"
       style="opacity:1;fill:#fdce24;fill-opacity:1;stroke:none;stroke-width:1px;stroke-linecap:butt;stroke-linejoin:miter;stroke-opacity:1" />
    <path
       transform="matrix(-1.0009151,0,0,1,220.63084,0.266177)"
       sodipodi:nodetypes="ccccccc"
       inkscape:connector-curvature="0"
       id="path1077-4-6"
       d="m 57.479701,174.44486 c 2.710386,-2.27567 3.79827,-9.89594 0.64069,-12.87839 -1.968507,2.55161 -2.625897,5.73439 -1.530257,12.12952 l -0.980168,1.30852 c -4.72237,-1.49993 -7.745926,0.45073 -10.641496,2.21665 3.413749,2.75732 9.235924,1.3495 11.527095,-1.53207 0.167678,-0.16801 0.829202,-1.06209 0.984136,-1.24423 z"
       style="opacity:1;fill:#fdce24;fill-opacity:1;stroke:none;stroke-width:1px;stroke-linecap:butt;stroke-linejoin:miter;stroke-opacity:1" />
    <path
       transform="matrix(-1.0009151,0,0,1,220.63084,0.266177)"
       sodipodi:nodetypes="ccccccc"
       inkscape:connector-curvature="0"
       id="path1077-4-8-7"
       d="m 52.869039,170.10792 c 2.356832,-2.40825 2.654318,-9.90504 -0.635845,-12.71071 -1.968507,2.55161 -1.59243,9.4558 -0.563081,11.60828 l -0.980168,0.97707 c -3.241866,-1.10218 -5.801383,-1.38333 -10.000681,0.3384 3.502138,3.26555 8.683497,3.42662 11.129348,1.07538 0.167678,-0.16801 0.895493,-1.10628 1.050427,-1.28842 z"
       style="opacity:1;fill:#fdce24;fill-opacity:1;stroke:none;stroke-width:1px;stroke-linecap:butt;stroke-linejoin:miter;stroke-opacity:1" />
    <path
       transform="matrix(-1.0009151,0,0,1,220.63084,0.266177)"
       sodipodi:nodetypes="ccccccc"
       inkscape:connector-curvature="0"
       id="path1077-4-2-5"
       d="m 47.795165,164.26953 c 2.429136,-2.33817 2.720145,-9.42719 -0.06244,-12.65964 -2.093507,2.52036 -2.047772,6.96876 -1.530257,10.47327 l -0.652043,1.7304 c -1.762313,-1.06224 -7.161113,-1.64868 -10.056683,0.11724 3.294762,3.54975 8.668306,4.10608 11.207907,1.45796 1.093511,-1.11923 0.938577,-0.93709 1.093511,-1.11923 z"
       style="opacity:1;fill:#fdce24;fill-opacity:1;stroke:none;stroke-width:1px;stroke-linecap:butt;stroke-linejoin:miter;stroke-opacity:1" />
    <path
       transform="matrix(-1.0009151,0,0,1,220.63084,0.266177)"
       sodipodi:nodetypes="ccccccc"
       inkscape:connector-curvature="0"
       id="path1077-4-2-2-0"
       d="m 43.533999,158.33563 c 1.677835,-2.49285 3.029505,-8.69799 0.357405,-12.08512 -2.093507,2.52036 -2.865364,6.76989 -1.530257,10.47327 l -0.652043,1.7304 c -1.762313,-1.06224 -5.525929,-2.31159 -9.70313,-1.42956 2.521364,3.88121 6.326015,5.03416 11.053228,3.18154 0.51323,-0.30333 0.290191,-1.51592 0.474797,-1.87053 z"
       style="opacity:1;fill:#fdce24;fill-opacity:1;stroke:none;stroke-width:1px;stroke-linecap:butt;stroke-linejoin:miter;stroke-opacity:1" />
    <path
       transform="matrix(-1.0009151,0,0,1,220.63084,0.266177)"
       sodipodi:nodetypes="ccccccc"
       inkscape:connector-curvature="0"
       id="path1077-4-2-8-5"
       d="m 39.781303,152.07377 c 1.835386,-0.77568 3.845145,-8.3647 1.06256,-11.59715 -2.093507,2.52036 -3.016522,6.53126 -2.155257,10.03578 l -0.652043,1.7304 c -1.762313,-1.06224 -5.223613,-3.17993 -10.400433,-2.16401 3.076012,4.04975 5.605806,5.32483 11.520407,4.11421 1.355505,-1.42784 -0.398475,-1.21074 0.624766,-2.11923 z"
       style="opacity:1;fill:#fdce24;fill-opacity:1;stroke:none;stroke-width:1px;stroke-linecap:butt;stroke-linejoin:miter;stroke-opacity:1" />
    <path
       transform="matrix(-1.0009151,0,0,1,220.63084,0.266177)"
       sodipodi:nodetypes="ccccccc"
       inkscape:connector-curvature="0"
       id="path1077-4-2-8-3-8"
       d="m 36.457007,145.66594 c 2.012162,-2.212 3.80095,-7.14937 1.526598,-11.95071 -2.159798,2.9623 -3.016522,5.93464 -2.597198,9.48335 l -0.475267,2.30493 c -2.712487,-1.76935 -6.303768,-3.30428 -11.303811,-1.9569 3.106342,3.81361 6.441592,4.83674 11.805067,3.33257 1.355505,-1.42784 0.132582,0.26517 1.044611,-1.21324 z"
       style="opacity:1;fill:#fdce24;fill-opacity:1;stroke:none;stroke-width:1px;stroke-linecap:butt;stroke-linejoin:miter;stroke-opacity:1" />
    <path
       transform="matrix(-1.0009151,0,0,1,220.63084,0.266177)"
       sodipodi:nodetypes="ccccccc"
       inkscape:connector-curvature="0"
       id="path1077-4-2-8-3-4-4"
       d="m 33.455876,138.30126 c 2.012162,-2.212 3.918367,-5.38355 1.644015,-10.18489 -2.159798,2.9623 -2.950231,4.18897 -2.530907,7.73768 l -0.188005,3.54237 c -2.513613,-2.38807 -5.243107,-4.32075 -10.618801,-3.4595 2.023585,4.23345 6.088039,6.40563 11.142154,5.10033 1.355505,-1.42784 -0.360485,-1.25758 0.551544,-2.73599 z"
       style="opacity:1;fill:#fdce24;fill-opacity:1;stroke:none;stroke-width:1px;stroke-linecap:butt;stroke-linejoin:miter;stroke-opacity:1" />
    <path
       transform="matrix(-1.0009151,0,0,1,220.63084,0.266177)"
       sodipodi:nodetypes="ccccccc"
       inkscape:connector-curvature="0"
       id="path1077-4-2-8-3-4-5-2"
       d="m 31.073096,131.05341 c 2.122647,-1.74796 4.890639,-4.07983 3.765336,-10.0965 -2.778517,2.34358 -4.231863,4.21106 -4.475452,7.60509 l -0.718335,3.03414 c -2.071671,-2.54275 -3.462126,-4.77851 -9.876383,-4.69065 1.935196,4.38813 4.461738,6.59822 10.466028,6.72923 1.355505,-1.42784 -0.07322,-1.1029 0.838806,-2.58131 z"
       style="opacity:1;fill:#fdce24;fill-opacity:1;stroke:none;stroke-width:1px;stroke-linecap:butt;stroke-linejoin:miter;stroke-opacity:1" />
    <path
       transform="matrix(-1.0009151,0,0,1,220.63084,0.266177)"
       sodipodi:nodetypes="ccccccc"
       inkscape:connector-curvature="0"
       id="path1077-4-2-8-3-4-5-1-0"
       d="m 28.968308,122.87331 c 2.372647,-1.43546 5.703139,-2.86108 5.390336,-9.75275 -3.153517,1.59358 -5.950613,5.14856 -5.725452,8.13634 l -0.912562,2.83499 c -1.82167,-2.66775 -2.861648,-4.82936 -8.838405,-6.304 0.935196,3.63813 2.823042,7.66571 9.233581,8.10922 1.355505,-1.42784 -0.05952,-1.54539 0.852502,-3.0238 z"
       style="opacity:1;fill:#fdce24;fill-opacity:1;stroke:none;stroke-width:1px;stroke-linecap:butt;stroke-linejoin:miter;stroke-opacity:1" />
    <path
       transform="matrix(-1.0009151,0,0,1,220.63084,0.266177)"
       sodipodi:nodetypes="ccccccc"
       inkscape:connector-curvature="0"
       id="path1077-4-2-8-3-4-5-1-2-5"
       d="m 27.974136,116.03289 c 1.798123,-0.86093 5.128615,-1.71203 5.611307,-8.78047 -3.153517,1.59358 -5.729642,4.22048 -5.946423,7.25245 l -1.221921,0.5369 c -1.247146,-2.27001 -2.508095,-5.18292 -7.910328,-6.17142 0.493255,2.04714 1.718188,7.48893 8.084533,7.84405 1.382832,-0.68151 0,0 1.382832,-0.68151 z"
       style="opacity:1;fill:#fdce24;fill-opacity:1;stroke:none;stroke-width:1px;stroke-linecap:butt;stroke-linejoin:miter;stroke-opacity:1" />
    <path
       transform="matrix(-1.0009151,0,0,1,220.63084,0.266177)"
       sodipodi:nodetypes="ccccccc"
       inkscape:connector-curvature="0"
       id="path1077-4-2-8-3-4-5-1-2-3-8"
       d="m 27.255193,109.1165 c 2.549424,-0.3306 7.205741,-3.61238 6.892938,-9.17822 -3.949012,1.15164 -6.480943,3.77854 -6.962889,7.20826 l -1.221921,0.5369 c -0.805204,-3.99358 -2.729066,-7.746182 -6.761279,-8.29274 -0.125464,2.13553 1.143663,9.12411 6.670319,9.83279 z"
       style="opacity:1;fill:#fdce24;fill-opacity:1;stroke:none;stroke-width:1px;stroke-linecap:butt;stroke-linejoin:miter;stroke-opacity:1" />
    <path
       transform="matrix(-1.0009151,0,0,1,220.63084,0.266177)"
       sodipodi:nodetypes="ccccccc"
       inkscape:connector-curvature="0"
       id="path1077-4-2-8-3-4-5-1-2-3-5-2"
       d="m 27.539068,100.24209 c 2.770395,0.11134 7.205741,-3.612376 6.892938,-9.178216 -3.949012,1.15164 -6.480943,3.292404 -6.962889,7.208259 l -1.177727,0.227541 c 0.170215,-3.052215 -0.696134,-7.304239 -6.098366,-9.265011 -0.346435,2.798443 0.834304,10.007992 5.742241,11.158607 z"
       style="opacity:1;fill:#fdce24;fill-opacity:1;stroke:none;stroke-width:1px;stroke-linecap:butt;stroke-linejoin:miter;stroke-opacity:1" />
    <path
       transform="matrix(-1.0009151,0,0,1,220.63084,0.266177)"
       sodipodi:nodetypes="ccccccc"
       inkscape:connector-curvature="0"
       id="path1077-4-2-8-3-4-5-1-2-3-5-1-8"
       d="m 28.412256,91.819727 c 2.770395,0.11134 8.178013,-2.419133 8.528123,-7.984973 -3.949012,1.15164 -5.950613,2.010773 -8.023549,6.015016 l -1.266116,-0.302789 c 0.08183,-3.096409 -2.066153,-7.922957 -4.639958,-8.734681 -1.009348,2.931026 -0.447327,9.919604 4.46061,11.070219 z"
       style="opacity:1;fill:#fdce24;fill-opacity:1;stroke:none;stroke-width:1px;stroke-linecap:butt;stroke-linejoin:miter;stroke-opacity:1" />
    <path
       transform="matrix(-1.0009151,0,0,1,220.63084,0.266177)"
       sodipodi:nodetypes="ccccccc"
       inkscape:connector-curvature="0"
       id="path1077-4-2-8-3-4-5-1-2-3-5-1-2-8"
       d="m 30.529685,83.696088 c 2.864145,0.08009 7.615053,-0.798734 8.996413,-5.677074 -2.855262,0.08914 -5.778278,0.671623 -8.663714,3.582116 l -1.047366,-0.365289 c 0.08183,-3.096409 -1.52732,-8.635425 -4.351125,-9.509649 -1.509348,3.618526 -0.140536,8.839069 3.548651,11.489685 z"
       style="opacity:1;fill:#fdce24;fill-opacity:1;stroke:none;stroke-width:1px;stroke-linecap:butt;stroke-linejoin:miter;stroke-opacity:1" />
    <path
       transform="matrix(-1.0009151,0,0,1,220.63084,0.266177)"
       sodipodi:nodetypes="ccccccc"
       inkscape:connector-curvature="0"
       id="path1077-4-2-8-3-4-5-1-2-3-5-1-2-1-6"
       d="m 33.133918,76.254506 c 2.551645,0.98634 9.583802,0.357516 10.965162,-4.520824 -3.636512,-0.12961 -6.653277,0.171623 -10.319963,3.238366 l -0.828616,-1.209039 c 0.80058,-2.596409 0.78518,-8.291675 -2.351125,-10.353399 -1.478098,2.118526 -1.953036,9.151569 1.454901,12.270935 z"
       style="opacity:1;fill:#fdce24;fill-opacity:1;stroke:none;stroke-width:1px;stroke-linecap:butt;stroke-linejoin:miter;stroke-opacity:1" />
    <path
       transform="matrix(-1.0009151,0,0,1,220.63084,0.266177)"
       sodipodi:nodetypes="ccccccc"
       inkscape:connector-curvature="0"
       id="path1077-4-2-8-3-4-5-1-2-3-5-1-2-1-3-9"
       d="m 37.282882,68.721067 c 3.551645,1.14259 6.214508,2.150295 10.877118,-1.290545 -1.949012,-1.22336 -4.815233,-2.277406 -9.950669,-0.179413 L 37.036965,66.22957 c 0.73808,-1.440159 1.66018,-7.041675 -0.351125,-10.384649 -1.853098,2.149776 -3.734286,8.307819 -0.826349,12.177185 z"
       style="opacity:1;fill:#fdce24;fill-opacity:1;stroke:none;stroke-width:1px;stroke-linecap:butt;stroke-linejoin:miter;stroke-opacity:1" />
    <path
       transform="matrix(-1.0009151,0,0,1,220.63084,0.266177)"
       sodipodi:nodetypes="cccc"
       inkscape:connector-curvature="0"
       id="path1301-8"
       d="m 37.547177,65.771966 c 0.613369,-5.764769 6.910217,-9.586632 10.40625,-9.78125 0.10413,7.230003 -9.202015,10.48359 -9.202015,10.48359 z"
       style="opacity:1;fill:#fdce24;fill-opacity:1;stroke:none;stroke-width:1px;stroke-linecap:butt;stroke-linejoin:miter;stroke-opacity:1" />
  </g>
  <g
     inkscape:groupmode="layer"
     id="layer4"
     inkscape:label="RED"
     style="display:inline">
    <path
       transform="matrix(1.0009151,0,0,1,-0.22487373,0.04653468)"
       style="fill:#dc0905;stroke-width:0.31999999"
       d="m 105.12,157.85812 c -4.94303,-2.03215 -5.160067,-2.23525 -5.917997,-5.53812 -0.222131,-0.968 -0.745453,-2.58366 -1.162941,-3.59036 C 97.520365,147.47889 97.28,146.27467 97.28,144.92677 c 0,-2.56324 -0.555629,-4.44677 -1.311766,-4.44677 -0.902778,0 -1.054887,0.58062 -0.964612,3.68209 0.07422,2.5499 0.0029,3.00399 -0.579497,3.69267 L 93.76,148.64 93.170582,147.94702 c -0.45352,-0.53321 -0.683932,-1.70256 -0.99936,-5.07175 -0.471849,-5.04 -0.475225,-5.03126 2.341364,-6.06388 1.691523,-0.62015 2.07224,-1.20293 2.890982,-4.42537 0.712826,-2.80557 2.422918,-3.07244 7.716192,-1.20414 3.24328,1.14473 3.61723,1.15999 8.53809,0.3483 3.5062,-0.57834 11.89445,-2.96416 12.56615,-3.57412 0.38763,-0.352 1.68679,-0.3593 1.90224,-0.0107 0.0902,0.14595 -0.0442,0.95724 -0.29871,1.80285 -0.25449,0.84562 -0.68795,2.8502 -0.96323,4.45463 -1.32712,7.73473 -2.78602,14.39583 -3.35864,15.33496 -0.34762,0.57011 -0.6238,1.599 -0.62446,2.32641 -0.002,1.69998 -0.63623,2.28008 -4.48501,4.09938 -5.92967,2.80293 -9.74295,3.34709 -13.27619,1.89452 z m 16.96,-71.664946 c -1.10719,-0.30326 -1.19087,-0.63975 -0.49724,-1.999392 0.70233,-1.376672 2.5751,-2.95918 4.49724,-3.800211 2.31348,-1.012256 8.55788,-0.303053 9.06944,1.030055 0.25099,0.65408 -2.32883,2.941468 -4.36619,3.87126 -1.50642,0.687488 -2.44225,0.868704 -4.96,0.960474 -1.70679,0.06221 -3.39125,0.03423 -3.74325,-0.06219 z m -34.843498,-0.91375 c -2.499379,-0.865488 -3.595296,-1.775664 -4.797388,-3.984304 -1.155184,-2.122458 -0.759642,-2.424195 3.130588,-2.388166 3.544727,0.03283 5.07673,0.651475 7.351748,2.968745 1.32319,1.347767 1.528972,1.719843 1.348611,2.438461 -0.254221,1.01289 -1.83281,1.774784 -3.619783,1.747069 -0.665654,-0.01034 -2.201852,-0.362138 -3.413776,-0.781805 z"
       id="path120"
       inkscape:connector-curvature="0"
       sodipodi:nodetypes="ccsssscccscscsscccccsccccccssccssssccs" />
  </g>
  <g
     inkscape:groupmode="layer"
     id="layer1"
     inkscape:label="BLACK"
     style="display:inline;opacity:1">
    <path
       sodipodi:nodetypes="ccccccccccccccccccccsccccscsccsssscccccscccscccccccccccccsccsscccccsccccscccccccscccccscsccccscscccc"
       inkscape:connector-curvature="0"
       id="path118-2"
       d="m 108.49395,195.19601 v -5.76953 l 2.89794,-0.22936 c 1.59387,-0.12615 2.94903,-0.17744 3.01146,-0.11397 0.0624,0.0635 0.21288,0.64736 0.33433,1.29755 l 0.2208,1.18216 -1.71226,0.0978 c -1.58356,0.0905 -1.71963,0.16139 -1.81018,0.94321 -0.0955,0.82467 -0.0563,0.84425 1.6,0.8 l 1.69791,-0.0454 0.0993,1.2 0.0993,1.2 h -1.61928 -1.61932 v 1.24965 1.24966 l 1.92,-0.1741 1.92,-0.1741 v 1.32445 1.32444 h -2.03534 c -1.11943,0 -2.70343,0.0916 -3.52,0.20349 l -1.48466,0.2035 z m -9.119993,4.97734 c -2.306858,-0.80418 -3.618568,-3.19831 -3.183688,-5.81085 0.48988,-2.94295 2.09305,-4.74096 4.596861,-5.15558 1.22393,-0.20268 4.45984,0.29664 4.92281,0.75961 0.411,0.411 -0.68658,2.35944 -1.2149,2.15671 -2.3339,-0.89561 -4.13259,-0.414 -4.847933,1.29804 -0.99856,2.38993 0.11118,4.57726 2.322293,4.57726 0.99172,0 1.08455,-0.0822 1.08455,-0.96 0,-0.85333 -0.10667,-0.96 -0.96,-0.96 -0.88975,0 -0.96,-0.0847 -0.96,-1.1576 v -1.15759 l 2.48,0.22967 c 1.364,0.12631 2.48005,0.25123 2.48011,0.27759 5e-5,0.0264 -0.0458,1.36389 -0.1018,2.97229 l -0.10189,2.92436 -0.97821,0.19564 c -1.46211,0.29242 -4.44888,0.1902 -5.538203,-0.18955 z m 18.393663,-0.3152 c -0.003,-0.23079 -0.28898,-2.78612 -0.63443,-5.67852 -0.34544,-2.8924 -0.57774,-5.30926 -0.5162,-5.3708 0.0615,-0.0615 1.55669,-0.1999 3.32257,-0.30748 3.13085,-0.19074 3.23084,-0.17545 4.02133,0.61504 1.16516,1.16515 1.40441,2.83718 0.60086,4.1991 l -0.6415,1.08725 2.05938,2.0379 2.05938,2.0379 -1.69253,0.40056 -1.69253,0.40057 -1.63292,-1.76057 c -2.21193,-2.38483 -2.6728,-2.34728 -2.28929,0.18653 0.16208,1.0709 0.24689,1.98845 0.18845,2.039 -0.0584,0.0506 -0.79024,0.19118 -1.62624,0.31251 -1.1514,0.16712 -1.52154,0.11886 -1.52633,-0.19899 z m 3.8388,-6.97208 c 0.9267,-0.9267 0.437,-2.05413 -0.95172,-2.19114 -1.02491,-0.10112 -1.04527,-0.079 -0.84547,0.92 0.1126,0.56299 0.20472,1.22161 0.20472,1.46361 0,0.64195 0.86227,0.53773 1.59247,-0.19247 z m -30.232461,6.42429 c -1.19297,-0.26401 -1.19292,-0.53145 9.6e-4,-6.88888 l 0.86618,-4.61178 1.16635,0.17609 c 0.64149,0.0969 1.27455,0.27275 1.4068,0.39087 0.13224,0.11813 -0.14879,2.69137 -0.62452,5.71833 -0.93097,5.92354 -0.79062,5.66359 -2.81593,5.21537 z m -7.6,-1.69668 c -0.77352,-0.20545 -1.1999,-0.50644 -1.19971,-0.84693 1.5e-4,-0.29051 0.42888,-2.11221 0.95272,-4.04821 0.52384,-1.936 0.95571,-3.6857 0.95971,-3.88821 0.004,-0.20252 -0.53272,-0.49904 -1.19272,-0.65893 -1.08527,-0.26293 -1.19027,-0.3807 -1.09828,-1.23179 0.0559,-0.51759 0.21477,-1.05669 0.35294,-1.19801 0.2279,-0.23309 7.54201,1.42694 7.91045,1.79538 0.0859,0.0859 0.058,0.67923 -0.0619,1.31855 -0.16387,0.87353 -0.34792,1.12399 -0.74063,1.00789 -2.28339,-0.67504 -2.03523,-0.96503 -3.24998,3.79785 -0.60841,2.3855 -1.17964,4.32239 -1.2694,4.3042 -0.0897,-0.0182 -0.70319,-0.1765 -1.36319,-0.35179 z m 44.776511,-0.17514 c -0.0777,-0.132 -0.24163,-0.708 -0.36432,-1.28 l -0.22305,-1.04 h 1.88426 c 3.53193,0 4.02535,-1.45527 0.7219,-2.12912 -2.36435,-0.48228 -3.44647,-1.35872 -3.71414,-3.00818 -0.33402,-2.05834 2.27804,-4.12037 5.23883,-4.13567 l 1.36,-0.007 v 1.23929 1.23928 l -1.61884,0.15555 c -3.0334,0.29147 -2.94079,1.33815 0.1631,1.84332 2.87522,0.46795 4.01574,1.52885 4.01574,3.73539 0,1.09734 -1.78918,2.83212 -3.37501,3.2724 -1.44904,0.4023 -3.8791,0.47051 -4.08847,0.11477 z"
       style="fill:#010101;stroke-width:0.31999999" />
    <path
       transform="matrix(1.0009151,0,0,1,-0.22487373,0.04653468)"
       sodipodi:nodetypes="cssssssscsscssccscsscccssssssssccccccccscccccsccccscsccccccsssccccscccsccscsscccccscscsccccscccccsssccccsccccsccccccccccsscscsscsssccccsccccccccccssccscscsssccccccscsssccsssccccccccccscscccsssscccccccccscccccccscccsccccscccccccscscccccsccccsscsccsccscccsccc"
       inkscape:connector-curvature="0"
       id="path118"
       d="m 102.56,218.0575 c -0.528,-0.0737 -2.544,-0.28698 -4.48,-0.47404 C 71.691405,215.03376 46.229699,202.36063 28.914068,183.15729 12.961233,165.46532 3.9107392,145.82648 0.74931715,122.04207 0.05765039,116.83844 -0.03849468,102.64034 0.58271968,97.44 4.7597834,62.472797 23.399576,33.319862 52.907146,15.603761 67.293357,6.9663971 82.442394,2.0323931 99.36,0.47418042 c 28.03745,-2.58241712 56.12853,5.91658498 78.4,23.72005058 4.53298,3.623595 12.68914,11.783747 16.27781,16.285769 4.74274,5.94983 9.40976,13.162778 12.50702,19.329798 13.10783,26.099248 15.24893,57.238372 5.82184,84.670202 -4.2816,12.45901 -9.95749,22.73103 -18.53827,33.54991 -3.35613,4.23149 -11.60861,12.4529 -16.0684,16.0079 -16.43181,13.09816 -35.08688,20.94204 -55.68,23.41171 -3.94624,0.47326 -17.46711,0.89439 -19.52,0.60798 z m 17.92,-6.84829 c 15.91053,-1.86637 29.96064,-6.76539 43.2639,-15.08533 17.59742,-11.00554 31.21022,-26.8238 39.60773,-46.02474 0.7966,-1.82144 1.44837,-3.65088 1.44837,-4.06542 0,-0.41455 0.13639,-0.75372 0.30309,-0.75372 0.16671,0 0.88924,-1.80165 1.60563,-4.00368 C 213.5579,120.22363 213.49206,98.056678 206.51604,76.4 203.31517,68.042826 199.47135,59.57387 194.72202,52.32 190.64784,46.191027 186.88944,41.592765 181.76834,36.471664 169.90865,24.61198 155.10675,15.728494 139.103,10.865716 121.1263,5.403448 101.40877,5.0167875 83.037955,9.7662819 63.332048,14.860943 44.686915,26.423725 31.447681,41.76 18.120457,57.198202 9.9337178,75.631011 7.1443661,96.48 c -0.7859031,5.87423 -0.7748912,19.4934 0.020442,25.28 3.2212249,23.43666 12.4799239,42.52498 28.9863159,59.76 2.149133,2.244 4.01488,4.08 4.146109,4.08 0.131229,0 0.873072,0.60356 1.648541,1.34125 0.775472,0.73768 3.164707,2.64568 5.309414,4.24 12.049415,8.95718 25.306266,15.03045 39.79456,18.2308 3.183027,0.70311 10.642867,1.78554 15.350252,2.22735 2.42692,0.22777 15.02666,-0.072 18.08,-0.43019 z m -16,-53.64035 c -1.408,-0.59046 -2.68082,-1.11728 -2.82848,-1.17071 -0.14767,-0.0534 0.0948,-0.78036 0.53878,-1.61541 0.444,-0.83505 0.97623,-2.34278 1.18273,-3.35051 0.2065,-1.00773 0.44935,-2.04823 0.53967,-2.31223 0.25885,-0.75664 1.00842,1.3071 1.34949,3.71546 0.49656,3.50633 1.03557,3.25031 1.28697,-0.61129 0.0942,-1.44654 0.31344,-2.60877 0.4886,-2.58986 0.50845,0.0549 1.98369,2.79061 2.59918,4.81997 0.6903,2.276 0.96238,2.66572 1.86108,2.66572 2.02905,0 2.45451,-2.33562 1.06464,-5.84449 -0.71568,-1.8068 -0.76691,-2.11602 -0.31001,-1.87122 1.06768,0.57206 3.55654,2.95032 4.23307,4.04497 1.36406,2.20709 1.65995,1.04774 0.65634,-2.57158 -0.33986,-1.22566 -0.58431,-2.2621 -0.54321,-2.3032 0.0411,-0.0411 0.81263,0.57077 1.71451,1.35972 1.73951,1.52168 3.59141,3.47114 3.27914,4.31137 -0.20313,0.54655 -5.32326,3.02426 -8.73645,3.88982 -3.55507,0.90156 -5.29069,0.72736 -8.37605,-0.56653 z M 116.80691,136.08 c -0.19716,-1.012 -0.43648,-2.24363 -0.53184,-2.73695 -0.25254,-1.30655 -0.89898,-0.87166 -1.01347,0.68182 -0.12113,1.64354 -0.5783,1.70839 -1.21982,0.17302 -0.62717,-1.50103 -1.24178,-0.99713 -1.24178,1.01811 0,0.7832 -0.0926,1.424 -0.20576,1.424 -0.24747,0 -0.59424,-0.84345 -0.59424,-1.44534 0,-0.71137 -0.64223,-2.1791 -0.85875,-1.96257 -0.11047,0.11046 -0.30086,0.74243 -0.42309,1.40438 l -0.22225,1.20353 -0.43433,-1.52 c -0.23887,-0.836 -0.543,-1.52 -0.67584,-1.52 -0.13284,0 -0.51551,0.612 -0.85038,1.36 l -0.60885,1.36 -0.23887,-1.2 c -0.13138,-0.66 -0.36684,-1.2 -0.52325,-1.2 -0.15642,0 -0.3855,-0.036 -0.50908,-0.08 -0.12359,-0.044 -0.3799,0.55744 -0.56959,1.33653 -0.1897,0.77909 -0.51009,1.47159 -0.71198,1.53889 -0.20189,0.0673 -0.66242,-0.54531 -1.02339,-1.36135 -0.86854,-1.96346 -1.5423,-1.8262 -2.32355,0.47336 -0.32652,0.96109 -0.71635,1.87012 -0.86629,2.02006 -0.15017,0.15017 -0.51734,-0.70663 -0.81741,-1.90743 -0.29963,-1.19903 -0.885273,-2.79206 -1.301417,-3.54006 l -0.56913,-1.14125 c 0.410825,-0.31312 0.82165,-0.4131 1.232475,-0.47937 1.782792,-0.11956 2.714122,0.25099 5.446932,1.1625 1.55001,0.517 3.22649,0.90875 3.82099,0.90875 1.21255,0 7.10022,-1.01107 8.65662,-1.42554 0.45141,-0.1202 0.84751,-0.32437 0.89951,-0.0657 0.0671,0.33357 0.18171,1.30682 0.18655,2.69246 0.005,1.35989 -0.92461,4.66812 -1.31138,4.66812 -0.13138,0 -0.40019,-0.828 -0.59734,-1.84 z m 10.48381,-50.56 c -0.84835,-0.97256 -1.1503,-1.803491 -1.25111,-3.442912 -0.12199,-1.983731 0.53836,-2.268346 1.96136,-0.845354 0.78091,0.780916 0.95903,1.226196 0.95903,2.397479 0,2.405401 -0.61388,3.100733 -1.66928,1.890787 z M 86.100704,84.819568 c -0.395555,-0.250298 -0.397818,-0.476899 -0.01632,-1.63287 0.243638,-0.738231 0.839834,-1.968013 1.324877,-2.732848 0.853395,-1.345664 0.958607,-1.445563 1.93205,-1.106221 0.484509,0.168899 0.720217,0.306339 0.807794,0.531096 0.07496,0.192385 0.04139,0.448745 -0.03757,0.843573 -0.105347,0.526736 -0.191539,1.222902 -0.191539,1.547036 0,0.746039 -2.080263,2.852282 -2.810666,2.845767 -0.302134,-0.0026 -0.756016,-0.135687 -1.00863,-0.295533 z M 57.014749,43.17729 l -2.654787,-3.542714 -1.109575,0.846317 -1.109574,0.846313 -0.61976,-0.743603 c -0.340867,-0.408982 -0.624551,-0.907718 -0.630407,-1.108301 -0.0059,-0.200585 1.568477,-1.525664 3.498516,-2.94462 l 3.509161,-2.579924 0.707485,0.993575 0.707488,0.993574 -0.936646,0.749456 C 57.861491,37.099565 57.332,37.437536 57.2,37.43841 c -0.565661,0.0037 -0.09127,0.809737 2.373651,4.03288 l 2.613655,3.417619 -1.093655,0.906937 c -0.601507,0.498816 -1.168006,0.91081 -1.258883,0.915546 -0.09088,0.0047 -1.359885,-1.585613 -2.820019,-3.534102 z m 96.422501,-0.236452 c -1.56127,-0.730732 -3.22139,-2.553801 -3.50615,-3.850291 -0.46199,-2.10344 1.45109,-5.932601 3.4341,-6.873606 1.57138,-0.745665 2.71626,-0.672923 4.66092,0.296141 3.39912,1.693852 4.33232,4.484518 2.52674,7.556073 -1.77181,3.014138 -4.47788,4.10624 -7.11561,2.871683 z m 2.9453,-2.780598 C 157.31305,39.50849 158.4,37.688845 158.4,36.782854 158.4,35.76417 157.18876,34.56 156.16409,34.56 c -1.41788,0 -3.20409,2.297274 -3.20409,4.120816 0,1.660931 1.95619,2.506506 3.42255,1.479424 z m -91.910976,2.653197 c -0.08985,-0.234154 -0.796739,-2.84072 -1.57086,-5.792368 l -1.407495,-5.366637 1.173392,-0.736777 c 2.70993,-1.701579 2.141802,-1.916542 6.759914,2.557756 2.295411,2.223927 4.172288,4.133747 4.170835,4.244045 -0.0016,0.110301 -0.564035,0.505232 -1.250189,0.877629 L 71.099626,39.27417 70.28433,38.458877 69.469037,37.643581 68.311101,38.261792 C 66.693466,39.125427 66.48679,39.445776 66.88,40.48 c 0.3812,1.00263 0.193901,1.327158 -1.257926,2.179584 -0.782752,0.459587 -1.020954,0.49144 -1.1505,0.153853 z m 2.389674,-6.595251 0.956714,-0.581812 -1.794439,-1.738188 C 65.036586,32.942186 64.303018,32.376 64.393379,32.64 c 0.09036,0.264 0.425114,1.308 0.743895,2.32 0.318784,1.012 0.621827,1.84 0.67343,1.84 0.05161,0 0.524349,-0.261814 1.050544,-0.581814 z M 72.474237,32.30849 C 71.138915,29.642297 70.092874,27.321379 70.149702,27.150896 70.247946,26.856162 75.638013,24.32 76.166163,24.32 c 0.199283,0 0.953837,1.676164 0.953837,2.118856 0,0.05684 -0.72,0.413089 -1.6,0.791655 -1.764128,0.758907 -1.733846,0.721469 -1.275792,1.577351 0.317258,0.592799 0.355962,0.592176 1.80529,-0.02908 0.814598,-0.349176 1.507849,-0.595247 1.540566,-0.546824 0.244429,0.361802 0.871027,2.206245 0.773008,2.275419 -0.06769,0.04777 -0.72201,0.347133 -1.454048,0.66525 -1.271312,0.552468 -1.316528,0.619836 -1.008694,1.502883 0.369545,1.060084 0.681059,1.116877 2.335177,0.425744 0.656519,-0.27431 1.230599,-0.45431 1.275735,-0.4 0.274752,0.330589 0.808758,1.552829 0.808758,1.851092 0,0.194931 -0.907958,0.761795 -2.017686,1.259696 -3.642148,1.634121 -3.088164,1.967148 -5.828077,-3.503552 z m 68.525153,3.873334 c -1.21033,-0.526006 -2.25158,-1.007347 -2.31388,-1.069645 -0.11355,-0.113552 3.93139,-10.155742 4.19811,-10.422465 0.27308,-0.273083 4.80489,1.933637 5.70495,2.777972 2.00319,1.879164 2.26387,3.498731 0.97835,6.078432 -1.74976,3.511306 -4.56203,4.376471 -8.56753,2.635706 z m 4.3201,-2.037661 c 1.3511,-1.028563 2.17436,-3.246061 1.68173,-4.529826 -0.18586,-0.484345 -1.98201,-1.625896 -2.19955,-1.397933 -0.0544,0.05698 -0.68288,1.370498 -1.39668,2.918935 -1.29699,2.813563 -1.29737,2.815519 -0.5914,3.099717 0.9985,0.401962 1.90153,0.369206 2.5059,-0.09089 z M 82.074854,33.828406 C 81.999965,33.614784 81.142486,31.209639 80.169344,28.483642 79.196205,25.757645 78.4,23.503182 78.4,23.473723 c 0,-0.09998 2.988138,-1.072357 3.050854,-0.99279 0.03428,0.04349 0.388679,1.072345 0.787559,2.286352 l 0.725238,2.207285 0.787162,-2.527285 C 84.18375,23.057278 84.704928,21.759182 84.908986,21.562627 85.390211,21.099093 88,20.466716 88,20.813644 c 0,0.146077 -0.432,1.38748 -0.96,2.758675 -0.528,1.371196 -0.96,2.57487 -0.96,2.674832 0,0.09996 1.005965,1.30829 2.235478,2.685173 1.229514,1.376883 2.164759,2.617851 2.078324,2.757706 -0.08644,0.139855 -0.754154,0.355144 -1.483818,0.478421 -1.299507,0.219549 -1.357846,0.189008 -2.850422,-1.492157 -1.141508,-1.285743 -1.617108,-1.625931 -1.895872,-1.356082 -0.282404,0.273371 -0.250231,0.770643 0.133452,2.062645 0.553453,1.863671 0.510512,1.966973 -1.031635,2.481876 -0.802681,0.268003 -1.087008,0.259328 -1.190653,-0.03633 z M 127.2,31.553248 125.6,31.2 l -1.41371,-4.32 -1.41372,-4.32 -0.5571,3.784151 c -0.30641,2.081283 -0.63552,3.862569 -0.73137,3.958413 -0.33548,0.335487 -2.50023,-0.254511 -2.35585,-0.642082 0.078,-0.209265 0.41089,-2.73536 0.73985,-5.613545 l 0.5981,-5.233063 1.9269,0.214998 c 1.05979,0.118249 2.03942,0.324848 2.17694,0.459109 0.13753,0.134261 0.75149,1.88839 1.36437,3.898065 0.61287,2.009675 1.19881,3.869954 1.30208,4.133954 0.10328,0.264 0.54648,-1.248 0.98489,-3.36 0.43841,-2.112 0.82804,-3.872097 0.86586,-3.911326 0.0762,-0.0791 2.53763,0.567133 2.68667,0.705372 0.13315,0.123501 -2.56173,10.52508 -2.78753,10.759202 -0.10251,0.106286 -0.90638,0.03429 -1.78638,-0.16 z M 91.094227,25.889225 c -1.360365,-2.858933 -2.361078,-5.308035 -2.223808,-5.442449 0.137267,-0.134413 0.802963,-0.289926 1.479322,-0.345582 L 91.579482,20 93.229741,23.944335 94.88,27.88867 95.088285,23.725092 c 0.11456,-2.289968 0.303056,-4.316919 0.418886,-4.504335 C 95.623002,19.033341 96.335283,18.88 97.090022,18.88 h 1.372253 l 1.299933,3.91692 c 1.459542,4.397858 1.296162,4.504739 2.074252,-1.35692 l 0.40354,-3.04 1.56098,-0.09921 c 1.55733,-0.09897 1.56055,-0.09711 1.38035,0.8 -0.0993,0.494564 -0.57753,3.095207 -1.06265,5.779207 -0.81932,4.533083 -0.93167,4.88 -1.58035,4.88 -0.38408,0 -1.13155,0.08664 -1.66103,0.19254 L 99.914602,30.14508 98.679731,26.51254 97.444864,22.88 97.163539,26.63078 c -0.305027,4.066789 -0.181689,3.853393 -2.459728,4.2558 l -1.136189,0.200704 z M 109.12,28.743075 c -1.54501,-1.036707 -2.31657,-2.75205 -2.33961,-5.201525 -0.0339,-3.601752 1.69026,-5.300555 5.37961,-5.300555 3.3364,0 5.24262,1.51224 5.51793,4.377493 0.20406,2.123692 -0.3943,4.092363 -1.66543,5.479403 -1.01604,1.108693 -1.18546,1.172166 -3.42074,1.281585 -2.04879,0.10029 -2.49604,0.0183 -3.47176,-0.636401 z m 5.09679,-3.214039 c 1.19252,-3.420858 -1.05005,-6.297178 -3.36033,-4.309961 -0.79906,0.687324 -0.9136,1.006779 -0.9136,2.547976 0,1.057364 0.18296,1.982581 0.45746,2.313333 1.15522,1.391961 3.24423,1.090172 3.81647,-0.551348 z"
       style="fill:#010101;stroke-width:0.31999999" />
  </g>
</svg>
