<?xml version="1.0" encoding="UTF-8" standalone="no"?>
<!-- Created with Inkscape (http://www.inkscape.org/) -->

<svg
   xmlns:dc="http://purl.org/dc/elements/1.1/"
   xmlns:cc="http://creativecommons.org/ns#"
   xmlns:rdf="http://www.w3.org/1999/02/22-rdf-syntax-ns#"
   xmlns:svg="http://www.w3.org/2000/svg"
   xmlns="http://www.w3.org/2000/svg"
   xmlns:sodipodi="http://sodipodi.sourceforge.net/DTD/sodipodi-0.dtd"
   xmlns:inkscape="http://www.inkscape.org/namespaces/inkscape"
   version="1.1"
   id="svg815"
   width="83.519997"
   height="27.52"
   viewBox="0 0 83.519997 27.52"
   sodipodi:docname="TKD_Hangul.svg"
   inkscape:version="0.92.3 (2405546, 2018-03-11)">
  <metadata
     id="metadata821">
    <rdf:RDF>
      <cc:Work
         rdf:about="">
        <dc:format>image/svg+xml</dc:format>
        <dc:type
           rdf:resource="http://purl.org/dc/dcmitype/StillImage" />
        <dc:title></dc:title>
      </cc:Work>
    </rdf:RDF>
  </metadata>
  <defs
     id="defs819" />
  <sodipodi:namedview
     pagecolor="#ffffff"
     bordercolor="#666666"
     borderopacity="1"
     objecttolerance="10"
     gridtolerance="10"
     guidetolerance="10"
     inkscape:pageopacity="0"
     inkscape:pageshadow="2"
     inkscape:window-width="1920"
     inkscape:window-height="1017"
     id="namedview817"
     showgrid="false"
     inkscape:zoom="16"
     inkscape:cx="31.142388"
     inkscape:cy="9.1270578"
     inkscape:window-x="-8"
     inkscape:window-y="1072"
     inkscape:window-maximized="1"
     inkscape:current-layer="layer1" />
  <g
     id="g831" />
  <g
     inkscape:groupmode="layer"
     id="layer1"
     inkscape:label="Layer 1">
    <path
       style="fill:#000000;stroke-width:0.31999999"
       d="M 20.185156,26.999035 C 19.872739,26.623191 19.734609,24.78289 19.658173,19.978056 l -0.103586,-6.511627 h -1.062884 -1.062884 l -0.124923,5.04 c -0.09924,4.003652 -0.23942,5.25385 -0.681747,6.08 -0.629191,1.175163 -1.319548,1.335829 -1.80913,0.421037 C 14.604113,24.617122 14.48176,20.536811 14.48176,13.960418 V 3.5323334 L 12.992862,2.5881014 C 11.795054,1.828474 11.612737,1.6021303 12.060326,1.430374 c 0.57958,-0.2224057 3.768357,0.3721063 4.741434,0.8839874 0.495263,0.26053 0.56,0.848176 0.56,5.083326 v 4.7887416 h 1.12 1.12 V 7.4107674 2.6351054 l -0.88,-0.6780733 c -0.484,-0.3729406 -1.24,-0.9551022 -1.68,-1.2936925 l -0.8,-0.6156189 1.6,0.0089 c 0.88,0.0049 2.370963,0.2521062 3.313249,0.5493539 l 1.713249,0.5404502 -0.04873,10.8751142 c -0.0268,5.981313 -0.183974,11.478613 -0.349276,12.216223 -0.611846,2.730179 -1.459503,3.754472 -2.285099,2.761269 z M 37.272963,25.128284 C 36.653203,24.694188 36.56176,24.342132 36.56176,22.390173 v -2.239966 l -1.68,-0.751597 -1.68,-0.751596 1.697523,-0.233843 c 1.292582,-0.17806 1.655177,-0.344201 1.52,-0.696465 -0.09764,-0.254441 -0.177523,-1.083679 -0.177523,-1.84275 v -1.380128 l -1.159123,0.261425 c -0.63752,0.143784 -1.31432,0.416619 -1.504,0.6063 -0.189684,0.189682 -0.581076,0.344876 -0.869767,0.344876 -0.671734,0 -4.46711,-1.888034 -4.46711,-2.222193 0,-0.138732 1.404,-0.329337 3.12,-0.423566 4.738982,-0.260227 8.046214,-0.853186 8.395152,-1.505182 0.161907,-0.302528 0.393894,-1.8683286 0.515526,-3.4795556 l 0.221149,-2.929504 h -1.929168 c -1.06104,0 -2.642259,0.230304 -3.513821,0.511787 -1.556169,0.502586 -1.613952,0.496942 -3.214102,-0.313915 -0.896194,-0.454136 -1.699093,-0.938397 -1.784219,-1.076134 -0.08513,-0.137738 2.048516,-0.248477 4.741428,-0.246086 4.357619,0.0039 4.970083,-0.06228 5.567843,-0.601371 0.579066,-0.522228 0.903335,-0.566336 2.352522,-0.32 1.828496,0.310811 2.316003,0.99121 1.425507,1.989528 -0.263053,0.294905 -0.650701,1.183381 -0.86144,1.974392 -0.210739,0.79101 -0.666179,1.992964 -1.012093,2.671009 -0.345913,0.6780456 -0.567901,1.2938426 -0.493305,1.3684366 0.07459,0.0746 0.886576,-0.02542 1.804406,-0.222261 1.694797,-0.363469 2.470661,-0.188929 1.615347,0.363394 -0.258902,0.167188 -1.658733,0.760108 -3.110733,1.317599 l -2.639999,1.01362 v 1.395279 c 0,0.767403 -0.205066,1.886071 -0.455703,2.485929 -0.43471,1.040404 -0.423651,1.095214 0.24,1.189722 0.645344,0.0919 0.702394,0.30175 0.78816,2.899072 l 0.09246,2.8 1.987539,-0.0018 c 2.263504,-0.002 4.29303,-0.47567 5.09615,-1.189305 0.40702,-0.361671 1.04957,-0.451245 2.48969,-0.347075 2.22717,0.161098 3.26753,0.852826 2.68339,1.784169 -0.43999,0.701504 -2.7532,0.946479 -9.410484,0.996593 -4.023223,0.03028 -5.104144,-0.0574 -5.68,-0.460743 z m 20.184173,-2.120051 c -1.09155,-0.556966 -1.91255,-1.129293 -1.82445,-1.271839 0.0881,-0.142545 1.20639,-0.170736 2.48509,-0.06265 1.27871,0.10809 4.15729,0.09084 6.39686,-0.03833 l 4.07194,-0.234861 -0.0924,-2.595864 c -0.0899,-2.524203 -0.11891,-2.609424 -1.05241,-3.087063 -0.528,-0.270159 -1.008,-0.599198 -1.06666,-0.731198 -0.0587,-0.132 -0.86435,-0.24 -1.79041,-0.24 -2.52983,0 -2.74192,-0.372479 -2.74754,-4.8251976 l -0.005,-3.654802 -1.59539,-0.879907 c -2.26753,-1.250618 -2.07617,-1.615056 0.72462,-1.379953 3.23521,0.271568 12.96089,-0.253033 13.43239,-0.724541 0.45598,-0.455969 2.46115,-0.491479 3.58677,-0.06352 0.9207,0.350049 1.11602,1.426175 0.31466,1.733683 -0.27839,0.106831 -2.54639,0.195488 -5.04,0.197018 -2.4936,0.0015 -5.28982,0.09359 -6.21382,0.204574 l -1.68,0.201791 v 3.955427 3.9554276 h 2.83632 c 3.3036,0 6.02163,-0.448462 6.75823,-1.115077 0.3872,-0.350402 0.96191,-0.419807 2.26225,-0.273197 2.13316,0.240509 2.86319,0.588622 2.86319,1.365296 0,0.785253 -0.60704,0.982978 -3.01789,0.982978 -3.17177,0 -7.2366,0.418086 -6.10211,0.62763 l 0.96,0.177314 0.0921,3.158835 0.0921,3.158834 2.30792,-0.149707 c 1.26935,-0.08234 2.76876,-0.388927 3.33202,-0.681306 1.1381,-0.590771 3.45489,-0.698635 4.71506,-0.21952 0.87876,0.334105 1.10061,1.307658 0.42083,1.846806 -0.22807,0.180892 -4.18236,0.400304 -9.2,0.510483 -7.9142,0.173783 -10.97101,0.395964 -13.44,0.976874 -0.5463,0.128536 -1.42936,-0.13291 -2.78462,-0.824439 z M 3.2693523,20.972439 c -0.365786,-0.439993 -0.502427,-2.052696 -0.627591,-7.407116 l -0.16,-6.8446646 -1.26185,-0.707115 C 0.52589334,5.6246304 2.9334053e-4,5.1624284 0.05191134,4.9864284 c 0.05162,-0.176 0.25945,-0.259899 0.46185,-0.186442 0.2024,0.07346 1.40658696,0.196922 2.67597196,0.274368 1.887638,0.115166 2.56168,0.01799 3.701031,-0.533557 2.1057,-1.019352 4.5130277,-0.842228 4.8946417,0.360132 0.303967,0.957715 -0.34928,1.195115 -3.3036447,1.200599 l -2.64,0.0049 v 2.597322 c 0,2.5485386 0.01352,2.5929896 0.72,2.3666346 2.298621,-0.736477 4.3999997,-0.376431 4.3999997,0.753887 0,0.808073 -0.593814,1.002157 -3.0661717,1.002157 h -2.053828 v 2.88 c 0,2.542926 0.06635,2.88 0.566925,2.88 0.51137,0 2.973978,-0.661211 5.7530747,-1.544702 1.623598,-0.516152 1.22881,0.08817 -0.96,1.469527 -4.3694827,2.757572 -7.0059547,3.575589 -7.9324087,2.461185 z M 48.113066,17.898678 c -0.19322,-0.554264 -0.35131,-1.533349 -0.35131,-2.175744 0,-1.156896 -0.0114,-1.166894 -1.2,-1.052406 -0.66,0.06357 -1.514099,0.269694 -1.898003,0.458046 -0.548115,0.268919 -0.920541,0.212491 -1.73431,-0.262776 -1.688861,-0.986349 -1.45209,-1.248965 1.020572,-1.131971 1.24842,0.05907 2.620171,0.01947 3.048321,-0.08798 l 0.77847,-0.195387 -0.0875,-5.5067376 -0.0875,-5.506738 -1.52524,-1.1252778 -1.52524,-1.1252782 1.36524,-0.092895 c 0.75088,-0.051092 2.21469,0.1663877 3.2529,0.483289 l 1.88767,0.5761841 -0.0671,6.8767111 c -0.0692,7.0926414 -0.33379,9.3367144 -1.216,10.3115424 -0.75131,0.830187 -1.265,0.693309 -1.66098,-0.442582 z"
       id="path833"
       inkscape:connector-curvature="0"
       sodipodi:nodetypes="csccccssscsssscccccsscsscssccscccscscscssscscssscscscscccsscsscscccscccccccccsccsscsscsccscccscsssscccscccssccsscsscsssscsssscssscscsccssccccccsscsscc" />
  </g>
</svg>
